<svg xmlns:rdf="http://www.w3.org/1999/02/22-rdf-syntax-ns#" xmlns="http://www.w3.org/2000/svg" height="144" width="144" version="1.1" xmlns:cc="http://creativecommons.org/ns#" xmlns:dc="http://purl.org/dc/elements/1.1/" viewBox="0 0 144 144" fill="#ffffff">
<defs>
<filter id="a" style="color-interpolation-filters:sRGB">
<feFlood result="flood" flood-color="rgb(0,0,0)"/>
<feComposite operator="out" result="composite1" in2="SourceGraphic" in="flood"/>
<feGaussianBlur stdDeviation="3" result="blur" in="composite1"/>
<feOffset result="offset" dx="0" dy="0"/>
<feComposite operator="in" result="composite2" in2="SourceGraphic" in="offset"/>
</filter>
<filter id="b" style="color-interpolation-filters:sRGB">
<feFlood result="flood" flood-color="rgb(0,0,0)"/>
<feComposite operator="out" result="composite1" in2="SourceGraphic" in="flood"/>
<feGaussianBlur stdDeviation="1" result="blur" in="composite1"/>
<feOffset result="offset" dx="0" dy="0"/>
<feComposite operator="in" result="composite2" in2="SourceGraphic" in="offset"/>
</filter>
</defs>
<path fill="none" d="m10.642-4.7547h144v144h-144z"/>
<g fill="#fff" transform="matrix(6 0 0 6 10.302 -4.1887)">
<path style="" d="m18 3v2h-2v-2h-8v2h-2v-2h-2v18h2v-2h2v2h8v-2h2v2h2v-18h-2zm-10 14h-2v-2h2v2zm0-4h-2v-2h2v2zm0-4h-2v-2h2v2zm10 8h-2v-2h2v2zm0-4h-2v-2h2v2zm0-4h-2v-2h2v2z"/>
<path fill="none" d="m0 0h24v24h-24z"/>
</g>
<g>
<g filter="url(#b)" fill="#fff" transform="matrix(6 0 0 6 10.189 -4.0755)">
<path d="m18 3v2h-2v-2h-8v2h-2v-2h-2v18h2v-2h2v2h8v-2h2v2h2v-18h-2zm-10 14h-2v-2h2v2zm0-4h-2v-2h2v2zm0-4h-2v-2h2v2zm10 8h-2v-2h2v2zm0-4h-2v-2h2v2zm0-4h-2v-2h2v2z"/>
<path fill="none" d="m0 0h24v24h-24z"/>
</g>
</g>
<g>
<path fill="#fff" d="m50.365 20.33v63.3c-3.54-2.04-7.62-3.3-12-3.3-13.26 0-24 10.74-24 24s10.74 24 24 24 24-10.74 24-24v-60h24v-24h-36z"/>
</g>
<g>
<path d="m50.364 20.344v63.3c-3.54-2.04-7.62-3.3-12-3.3-13.26 0-24 10.74-24 24s10.74 24 24 24 24-10.74 24-24v-60h24v-24h-36z" filter="url(#a)" fill="#fff"/>
</g>
</svg>
