<svg xmlns:rdf="http://www.w3.org/1999/02/22-rdf-syntax-ns#" xmlns="http://www.w3.org/2000/svg" height="144" width="144" version="1.1" xmlns:cc="http://creativecommons.org/ns#" xmlns:dc="http://purl.org/dc/elements/1.1/" viewBox="0 0 72 72" fill="#ffffff">
<defs>
<filter id="b" style="color-interpolation-filters:sRGB">
<feFlood result="flood" flood-color="rgb(0,0,0)"/>
<feComposite operator="out" result="composite1" in2="SourceGraphic" in="flood"/>
<feGaussianBlur stdDeviation="2" result="blur" in="composite1"/>
<feOffset result="offset" dx="0" dy="0"/>
<feComposite operator="in" result="composite2" in2="SourceGraphic" in="offset"/>
</filter>
<filter id="a" style="color-interpolation-filters:sRGB">
<feFlood result="flood" flood-color="rgb(0,0,0)"/>
<feComposite operator="out" result="composite1" in2="SourceGraphic" in="flood"/>
<feGaussianBlur stdDeviation="2" result="blur" in="composite1"/>
<feOffset result="offset" dx="0" dy="0"/>
<feComposite operator="in" result="composite2" in2="SourceGraphic" in="offset"/>
</filter>
</defs>
<path filter="url(#b)" d="m39 21h-6v12h-12v6h12v12h6v-12h12v-6h-12v-12zm-3-15c-16.53 0-30 13.47-30 30s13.47 30 30 30h24c3.3 0 6-2.7 6-6v-24c0-16.53-13.47-30-30-30zm0 54c-13.23 0-24-10.77-24-24s10.77-24 24-24 24 10.77 24 24-10.77 24-24 24z"/>
<path filter="url(#a)" fill="none" d="m0 0h72v72h-72z"/>
</svg>
