<svg xmlns:rdf="http://www.w3.org/1999/02/22-rdf-syntax-ns#" xmlns="http://www.w3.org/2000/svg" height="144" width="144" version="1.1" xmlns:cc="http://creativecommons.org/ns#" xmlns:dc="http://purl.org/dc/elements/1.1/" viewBox="0 0 72 72" fill="#ffffff">
<defs>
<filter id="c" style="color-interpolation-filters:sRGB">
<feFlood result="flood" flood-color="rgb(0,0,0)"/>
<feComposite operator="out" result="composite1" in2="SourceGraphic" in="flood"/>
<feGaussianBlur stdDeviation="2" result="blur" in="composite1"/>
<feOffset result="offset" dx="0" dy="0"/>
<feComposite operator="in" result="composite2" in2="SourceGraphic" in="offset"/>
</filter>
<filter id="b" style="color-interpolation-filters:sRGB">
<feFlood result="flood" flood-color="rgb(0,0,0)"/>
<feComposite operator="out" result="composite1" in2="SourceGraphic" in="flood"/>
<feGaussianBlur stdDeviation="2" result="blur" in="composite1"/>
<feOffset result="offset" dx="0" dy="0"/>
<feComposite operator="in" result="composite2" in2="SourceGraphic" in="offset"/>
</filter>
<filter id="a" style="color-interpolation-filters:sRGB">
<feFlood result="flood" flood-color="rgb(0,0,0)"/>
<feComposite operator="out" result="composite1" in2="SourceGraphic" in="flood"/>
<feGaussianBlur stdDeviation="2" result="blur" in="composite1"/>
<feOffset result="offset" dx="0" dy="0"/>
<feComposite operator="in" result="composite2" in2="SourceGraphic" in="offset"/>
</filter>
</defs>
<circle filter="url(#c)" cy="36" cx="36" r="9.6"/>
<path filter="url(#b)" d="m27 6-5.49 6h-9.51c-3.3 0-6 2.7-6 6v36c0 3.3 2.7 6 6 6h48c3.3 0 6-2.7 6-6v-36c0-3.3-2.7-6-6-6h-9.51l-5.49-6h-18zm9 45c-8.28 0-15-6.72-15-15s6.72-15 15-15 15 6.72 15 15-6.72 15-15 15z"/>
<path filter="url(#a)" fill="none" d="m0 0h72v72h-72z"/>
</svg>
