<svg xmlns:rdf="http://www.w3.org/1999/02/22-rdf-syntax-ns#" xmlns="http://www.w3.org/2000/svg" height="144" width="144" version="1.1" xmlns:cc="http://creativecommons.org/ns#" xmlns:dc="http://purl.org/dc/elements/1.1/" viewBox="0 0 72 72" fill="#ffffff">
<defs>
<filter id="b" style="color-interpolation-filters:sRGB">
<feFlood result="flood" flood-color="rgb(0,0,0)"/>
<feComposite operator="out" result="composite1" in2="SourceGraphic" in="flood"/>
<feGaussianBlur stdDeviation="2" result="blur" in="composite1"/>
<feOffset result="offset" dx="0" dy="0"/>
<feComposite operator="in" result="composite2" in2="SourceGraphic" in="offset"/>
</filter>
<filter id="a" style="color-interpolation-filters:sRGB">
<feFlood result="flood" flood-color="rgb(0,0,0)"/>
<feComposite operator="out" result="composite1" in2="SourceGraphic" in="flood"/>
<feGaussianBlur stdDeviation="2" result="blur" in="composite1"/>
<feOffset result="offset" dx="0" dy="0"/>
<feComposite operator="in" result="composite2" in2="SourceGraphic" in="offset"/>
</filter>
</defs>
<path filter="url(#a)" fill="none" d="m0 0h72v72h-72z"/>
<path filter="url(#b)" d="m58.29 38.94c0.12-0.96 0.21-1.92 0.21-2.94s-0.09-1.98-0.21-2.94l6.33-4.95c0.57-0.45 0.72-1.26 0.36-1.92l-6-10.38c-0.36-0.66-1.17-0.9-1.83-0.66l-7.47 3c-1.56-1.2-3.24-2.19-5.07-2.94l-1.14-7.95c-0.09-0.72-0.72-1.26-1.47-1.26h-12c-0.75 0-1.38 0.54-1.47 1.26l-1.14 7.95c-1.83 0.75-3.51 1.77-5.07 2.94l-7.47-3c-0.69-0.27-1.47 0-1.83 0.66l-6 10.38c-0.39 0.66-0.21 1.47 0.36 1.92l6.33 4.95c-0.12 0.96-0.21 1.95-0.21 2.94s0.09 1.98 0.21 2.94l-6.33 4.95c-0.57 0.45-0.72 1.26-0.36 1.92l6 10.38c0.36 0.66 1.17 0.9 1.83 0.66l7.47-3c1.56 1.2 3.24 2.19 5.07 2.94l1.14 7.95c0.09 0.72 0.72 1.26 1.47 1.26h12c0.75 0 1.38-0.54 1.47-1.26l1.14-7.95c1.83-0.75 3.51-1.77 5.07-2.94l7.47 3c0.69 0.27 1.47 0 1.83-0.66l6-10.38c0.36-0.66 0.21-1.47-0.36-1.92l-6.33-4.95zm-22.29 7.56c-5.79 0-10.5-4.71-10.5-10.5s4.71-10.5 10.5-10.5 10.5 4.71 10.5 10.5-4.71 10.5-10.5 10.5z"/>
</svg>
