<svg xmlns:rdf="http://www.w3.org/1999/02/22-rdf-syntax-ns#" xmlns="http://www.w3.org/2000/svg" height="144" width="144" version="1.1" xmlns:cc="http://creativecommons.org/ns#" xmlns:dc="http://purl.org/dc/elements/1.1/" viewBox="0 0 72 72" fill="#ffffff">
<defs>
<filter id="b" style="color-interpolation-filters:sRGB">
<feFlood result="flood" flood-color="rgb(0,0,0)"/>
<feComposite operator="out" result="composite1" in2="SourceGraphic" in="flood"/>
<feGaussianBlur stdDeviation="2" result="blur" in="composite1"/>
<feOffset result="offset" dx="0" dy="0"/>
<feComposite operator="in" result="composite2" in2="SourceGraphic" in="offset"/>
</filter>
<filter id="a" style="color-interpolation-filters:sRGB">
<feFlood result="flood" flood-color="rgb(0,0,0)"/>
<feComposite operator="out" result="composite1" in2="SourceGraphic" in="flood"/>
<feGaussianBlur stdDeviation="2" result="blur" in="composite1"/>
<feOffset result="offset" dx="0" dy="0"/>
<feComposite operator="in" result="composite2" in2="SourceGraphic" in="offset"/>
</filter>
</defs>
<path filter="url(#a)" fill="none" d="m0 0h72v72h-72z"/>
<path filter="url(#b)" d="m35.97 6c-16.56 0-29.97 13.44-29.97 30s13.41 30 29.97 30c16.59 0 30.03-13.44 30.03-30s-13.44-30-30.03-30zm20.79 18h-8.85c-0.96-3.75-2.34-7.35-4.14-10.68 5.52 1.89 10.11 5.73 12.99 10.68zm-20.76-11.88c2.49 3.6 4.44 7.59 5.73 11.88h-11.46c1.29-4.29 3.24-8.28 5.73-11.88zm-23.22 29.88c-0.48-1.92-0.78-3.93-0.78-6s0.3-4.08 0.78-6h10.14c-0.24 1.98-0.42 3.96-0.42 6s0.18 4.02 0.42 6h-10.14zm2.46 6h8.85c0.96 3.75 2.34 7.35 4.14 10.68-5.52-1.89-10.11-5.7-12.99-10.68zm8.85-24h-8.85c2.88-4.98 7.47-8.79 12.99-10.68-1.8 3.33-3.18 6.93-4.14 10.68zm11.91 35.88c-2.49-3.6-4.44-7.59-5.73-11.88h11.46c-1.29 4.29-3.24 8.28-5.73 11.88zm7.02-17.88h-14.04c-0.27-1.98-0.48-3.96-0.48-6s0.21-4.05 0.48-6h14.04c0.27 1.95 0.48 3.96 0.48 6s-0.21 4.02-0.48 6zm0.75 16.68c1.8-3.33 3.18-6.93 4.14-10.68h8.85c-2.88 4.95-7.47 8.79-12.99 10.68zm5.31-16.68c0.24-1.98 0.42-3.96 0.42-6s-0.18-4.02-0.42-6h10.14c0.48 1.92 0.78 3.93 0.78 6s-0.3 4.08-0.78 6h-10.14z"/>
</svg>
