<?xml version="1.0" encoding="UTF-8" standalone="no"?>
<!-- Created with Inkscape (http://www.inkscape.org/) -->

<svg
   xmlns:dc="http://purl.org/dc/elements/1.1/"
   xmlns:cc="http://creativecommons.org/ns#"
   xmlns:rdf="http://www.w3.org/1999/02/22-rdf-syntax-ns#"
   xmlns:svg="http://www.w3.org/2000/svg"
   xmlns="http://www.w3.org/2000/svg"
   xmlns:sodipodi="http://sodipodi.sourceforge.net/DTD/sodipodi-0.dtd"
   xmlns:inkscape="http://www.inkscape.org/namespaces/inkscape"
   width="144"
   height="144"
   viewBox="0 0 144 144"
   id="svg3420"
   version="1.1"
   inkscape:version="0.91 r13725"
   sodipodi:docname="Utility.svg">
  <defs
     id="defs3422" />
  <sodipodi:namedview
     id="base"
     pagecolor="#ffffff"
     bordercolor="#666666"
     borderopacity="1.0"
     inkscape:pageopacity="0.0"
     inkscape:pageshadow="2"
     inkscape:zoom="4.5353536"
     inkscape:cx="44.293951"
     inkscape:cy="65.727196"
     inkscape:document-units="px"
     inkscape:current-layer="layer2"
     showgrid="false"
     units="px"
     inkscape:window-width="1600"
     inkscape:window-height="838"
     inkscape:window-x="-8"
     inkscape:window-y="-8"
     inkscape:window-maximized="1" />
  <metadata
     id="metadata3425">
    <rdf:RDF>
      <cc:Work
         rdf:about="">
        <dc:format>image/svg+xml</dc:format>
        <dc:type
           rdf:resource="http://purl.org/dc/dcmitype/StillImage" />
        <dc:title></dc:title>
      </cc:Work>
    </rdf:RDF>
  </metadata>
  <g
     inkscape:label="Layer 1"
     inkscape:groupmode="layer"
     id="layer1"
     transform="translate(0,-908.3622)"
     sodipodi:insensitive="true"
     style="display:inline">
    <path
       style="fill:#000000;fill-rule:evenodd;stroke:#000000;stroke-width:1.69438875px;stroke-linecap:butt;stroke-linejoin:miter;stroke-opacity:1"
       d="m 44.635769,965.57176 50.676132,64.92654 c 0,0 2.615957,3.579 3.936007,5.3596 1.864462,2.5149 3.104812,5.6653 5.627352,7.5195 1.40977,1.0362 3.20433,1.6229 4.94952,1.7473 1.79878,0.1283 3.71532,-0.2081 5.30541,-1.0588 1.33807,-0.7158 2.45724,-1.9069 3.21879,-3.2195 0.72986,-1.258 1.11389,-2.7555 1.14763,-4.2095 0.037,-1.5959 -0.31077,-3.2558 -1.04398,-4.6738 -1.40478,-2.7167 -4.12443,-4.5176 -6.15068,-6.8085 -1.28542,-1.4533 -3.81021,-4.4003 -3.81021,-4.4003 L 59.096768,957.43001 c 0,0 3.234394,-11.20433 3.493092,-16.95087 -2.948239,-4.61989 -9.249293,-10.67922 -15.847207,-13.75385 -5.739679,-2.67452 -19.108903,-3.33225 -19.108903,-3.33225 -0.801627,-0.41947 2.044375,2.35198 3.633293,4.1875 0.128334,0.082 20.778322,9.48433 20.390016,17.94765 0,0 -0.595183,3.27518 -1.709868,4.40786 -2.3472,2.38629 -6.410487,4.8259 -9.951318,5.65285 -1.608597,0.37592 -5.810703,-0.22365 -5.810703,-0.22365 -7.699683,-3.31015 -11.595833,-19.73417 -11.595833,-19.73417 -1.05168,-1.34529 -3.873589,-5.24884 -3.645707,-4.47664 0,0 -3.915186,8.79369 -3.407494,13.36777 0.698491,6.29487 3.578913,12.42639 8.682913,17.59899 5.299156,1.90389 20.411042,3.47692 20.411042,3.47692 z"
       id="path3340"
       inkscape:connector-curvature="0"
       sodipodi:nodetypes="ccaaaaaaaacccacccsscccaccc" />
    <path
       style="fill:#000000;fill-rule:evenodd;stroke:#000000;stroke-width:2.73141384px;stroke-linecap:butt;stroke-linejoin:miter;stroke-opacity:1"
       d="m 79.069522,971.65407 26.768808,-32.4088 -0.686,-5.69083 10.58166,-8.46326 6.5205,5.14914 -6.23466,11.89603 -5.835,0.54271 -26.767935,32.40772 9.780715,7.7237 -4.28985,5.1937 -8.259288,-6.52222 -2.230738,2.7007 -4.474746,17.60144 -31.37724,40.5873 c -6.071999,2.6399 -22.868984,-11.6617 -22.169657,-17.5071 l 33.985412,-38.52769 16.646345,-7.98963 2.230733,-2.7007 -8.259289,-6.52224 4.289883,-5.19372 z"
       id="path3358"
       inkscape:connector-curvature="0"
       sodipodi:nodetypes="ccccccccccccccccccccc" />
    <circle
       style="fill:#ffffff;fill-opacity:1;stroke:#808080;stroke-width:0;stroke-miterlimit:4;stroke-dasharray:none"
       id="path3736"
       cx="110.42991"
       cy="1035.9728"
       r="8.1663589" />
  </g>
  <g
     inkscape:groupmode="layer"
     id="layer2"
     inkscape:label="Shading"
     style="display:inline">
    <path
       style="display:inline;fill:#1a1a1a;fill-rule:evenodd;stroke:#1a1a1a;stroke-width:1px;stroke-linecap:butt;stroke-linejoin:miter;stroke-opacity:1"
       d="m 34.161671,125.22187 c -0.251969,0.61105 0.330871,2.21827 0.971807,3.08537 1.02828,1.39113 2.377172,2.4334 4.14583,3.31363 0.86123,0.42863 3.158689,0.7961 3.314482,0.39055 L 69.012461,98.281961 Z"
       id="path3510-8"
       inkscape:connector-curvature="0"
       sodipodi:nodetypes="cssccc" />
    <path
       style="display:inline;fill:#1a1a1a;fill-rule:evenodd;stroke:#1a1a1a;stroke-width:1px;stroke-linecap:butt;stroke-linejoin:miter;stroke-opacity:1"
       d="m 23.016693,115.90052 c -0.251969,0.61105 0.330871,2.21827 0.971807,3.08537 1.02828,1.39113 2.377172,2.4334 4.14583,3.31363 0.86123,0.42863 3.158689,0.7961 3.314482,0.39055 L 57.867483,88.960617 Z"
       id="path3510-8-0"
       inkscape:connector-curvature="0"
       sodipodi:nodetypes="cssccc" />
    <path
       style="fill:#1a1a1a;fill-rule:evenodd;stroke:#1a1a1a;stroke-width:0.99230534px;stroke-linecap:butt;stroke-linejoin:miter;stroke-opacity:1"
       d="m 79.868383,61.727657 25.593327,-30.883046 -0.74038,-5.862107 11.15297,-8.842362 6.60591,5.271449 -7.38134,11.374303 -5.00872,0.603803 z"
       id="path3581"
       inkscape:connector-curvature="0"
       sodipodi:nodetypes="cccccccc" />
    <path
       style="display:inline;fill:#333333;fill-rule:evenodd;stroke:#333333;stroke-width:0.95254958px;stroke-linecap:butt;stroke-linejoin:miter;stroke-opacity:1"
       d="m 83.138021,58.184813 22.813959,-27.385052 -0.71072,-5.627248 10.70614,-8.488101 5.68026,4.526312 -7.04897,10.321587 -4.98383,0.749335 z"
       id="path3581-9"
       inkscape:connector-curvature="0"
       sodipodi:nodetypes="cccccccc" />
    <path
       style="display:inline;fill:#4d4d4d;fill-rule:evenodd;stroke:#4d4d4d;stroke-width:0.83830673px;stroke-linecap:butt;stroke-linejoin:miter;stroke-opacity:1"
       d="m 87.400474,53.503064 18.945826,-22.715911 -0.62548,-5.614968 10.24895,-7.938632 4.75095,3.790525 -6.66772,9.593006 -4.84817,0.890942 z"
       id="path3581-9-8"
       inkscape:connector-curvature="0"
       sodipodi:nodetypes="cccccccc" />
    <path
       style="display:inline;fill:#666666;fill-rule:evenodd;stroke:#666666;stroke-width:0.75438923px;stroke-linecap:butt;stroke-linejoin:miter;stroke-opacity:1"
       d="m 90.547464,50.021318 16.289786,-19.315537 -0.60184,-5.481643 9.69072,-7.455764 4.0415,3.216192 -6.42901,8.983508 -4.55774,0.840733 z"
       id="path3581-9-8-8"
       inkscape:connector-curvature="0"
       sodipodi:nodetypes="cccccccc" />
    <path
       style="display:inline;fill:#808080;fill-rule:evenodd;stroke:#808080;stroke-width:0.65024656px;stroke-linecap:butt;stroke-linejoin:miter;stroke-opacity:1"
       d="m 93.469247,46.773698 13.765383,-16.042699 -0.4912,-5.413938 9.17145,-6.894233 3.17176,2.421404 -6.04821,8.56187 -4.36952,0.917599 z"
       id="path3581-9-8-8-5"
       inkscape:connector-curvature="0"
       sodipodi:nodetypes="cccccccc" />
    <path
       style="display:inline;fill:#333333;fill-rule:evenodd;stroke:#333333;stroke-width:0.90137154px;stroke-linecap:butt;stroke-linejoin:miter;stroke-opacity:1"
       d="m 23.814872,116.47339 c -0.227117,0.55078 0.298238,1.99949 0.87596,2.78107 0.926863,1.25392 2.142715,2.19339 3.736933,2.9868 0.776288,0.38635 2.847152,0.71759 2.987579,0.35204 l 23.81304,-30.402759 z"
       id="path3510-8-0-1"
       inkscape:connector-curvature="0"
       sodipodi:nodetypes="cssccc" />
    <path
       style="display:inline;fill:#4d4d4d;fill-rule:evenodd;stroke:#4d4d4d;stroke-width:0.80076343px;stroke-linecap:butt;stroke-linejoin:miter;stroke-opacity:1"
       d="m 24.629801,117.09546 c -0.201767,0.4893 0.264949,1.77631 0.778188,2.47065 0.82341,1.11397 1.903552,1.94858 3.319829,2.65343 0.689642,0.34322 2.529361,0.63749 2.654115,0.31274 L 52.537042,95.522965 Z"
       id="path3510-8-0-1-4"
       inkscape:connector-curvature="0"
       sodipodi:nodetypes="cssccc" />
    <path
       style="display:inline;fill:#666666;fill-rule:evenodd;stroke:#666666;stroke-width:0.69186354px;stroke-linecap:butt;stroke-linejoin:miter;stroke-opacity:1"
       d="m 25.544307,117.76918 c -0.174328,0.42276 0.228917,1.53474 0.672359,2.13465 0.711429,0.96247 1.644677,1.68359 2.868348,2.29258 0.595854,0.29655 2.18538,0.55079 2.293169,0.27021 L 49.656298,99.130444 Z"
       id="path3510-8-0-1-4-5"
       inkscape:connector-curvature="0"
       sodipodi:nodetypes="cssccc" />
    <path
       style="display:inline;fill:#808080;fill-rule:evenodd;stroke:#808080;stroke-width:0.60569352px;stroke-linecap:butt;stroke-linejoin:miter;stroke-opacity:1"
       d="m 26.287151,118.26198 c -0.152616,0.37011 0.200405,1.34359 0.588618,1.86879 0.622822,0.84259 1.439836,1.4739 2.511102,2.00705 0.521641,0.25961 1.913195,0.48219 2.00756,0.23655 l 16.001617,-20.42971 z"
       id="path3510-8-0-1-4-5-7"
       inkscape:connector-curvature="0"
       sodipodi:nodetypes="cssccc" />
    <path
       style="display:inline;fill:#333333;fill-rule:evenodd;stroke:#333333;stroke-width:0.90137154px;stroke-linecap:butt;stroke-linejoin:miter;stroke-opacity:1"
       d="m 34.977614,125.84157 c -0.227117,0.55078 0.298238,1.99949 0.87596,2.78107 0.926863,1.25392 2.142715,2.19339 3.736933,2.9868 0.776288,0.38635 2.847152,0.71759 2.987579,0.35204 l 23.813041,-30.40276 z"
       id="path3510-8-0-1-3"
       inkscape:connector-curvature="0"
       sodipodi:nodetypes="cssccc" />
    <path
       style="display:inline;fill:#4d4d4d;fill-rule:evenodd;stroke:#4d4d4d;stroke-width:0.80076343px;stroke-linecap:butt;stroke-linejoin:miter;stroke-opacity:1"
       d="m 35.792543,126.46364 c -0.201767,0.4893 0.264949,1.77631 0.778188,2.47065 0.82341,1.11397 1.903552,1.94858 3.319829,2.65343 0.689642,0.34322 2.529361,0.63749 2.654115,0.31274 l 21.15511,-27.00932 z"
       id="path3510-8-0-1-4-0"
       inkscape:connector-curvature="0"
       sodipodi:nodetypes="cssccc" />
    <path
       style="display:inline;fill:#666666;fill-rule:evenodd;stroke:#666666;stroke-width:0.69186354px;stroke-linecap:butt;stroke-linejoin:miter;stroke-opacity:1"
       d="m 36.707049,127.13736 c -0.174328,0.42276 0.228917,1.53474 0.672359,2.13465 0.711429,0.96247 1.644677,1.68359 2.868348,2.29258 0.595854,0.29655 2.18538,0.55079 2.293169,0.27021 l 18.278116,-23.33618 z"
       id="path3510-8-0-1-4-5-70"
       inkscape:connector-curvature="0"
       sodipodi:nodetypes="cssccc" />
    <path
       style="display:inline;fill:#808080;fill-rule:evenodd;stroke:#808080;stroke-width:0.60569352px;stroke-linecap:butt;stroke-linejoin:miter;stroke-opacity:1"
       d="m 37.449893,127.63016 c -0.152616,0.37011 0.200405,1.34359 0.588618,1.86879 0.622822,0.84259 1.439836,1.4739 2.511102,2.00705 0.521641,0.25961 1.913195,0.48219 2.00756,0.23655 l 16.001618,-20.42971 z"
       id="path3510-8-0-1-4-5-7-5"
       inkscape:connector-curvature="0"
       sodipodi:nodetypes="cssccc" />
    <path
       style="fill:#1a1a1a;fill-rule:evenodd;stroke:#1a1a1a;stroke-width:1.01488078px;stroke-linecap:butt;stroke-linejoin:miter;stroke-opacity:1"
       d="m 50.693718,63.245946 49.897222,64.284224 c 0,0 0.36157,-3.13587 1.22067,-4.38739 1.66412,-2.42426 4.2651,-4.41365 7.08079,-5.26114 1.16333,-0.35015 3.63929,0.19778 3.63929,0.19778 L 51.094916,55.077221 c 0,0 -2.026159,2.469962 -2.103333,3.963702 -0.07802,1.51014 1.702135,4.205023 1.702135,4.205023 z"
       id="path3738"
       inkscape:connector-curvature="0"
       sodipodi:nodetypes="ccaaccac" />
    <path
       style="display:inline;fill:#333333;fill-rule:evenodd;stroke:#333333;stroke-width:0.85154319px;stroke-linecap:butt;stroke-linejoin:miter;stroke-opacity:1"
       d="m 53.250492,65.966536 47.132728,60.625774 c 0,0 0.46595,-3.05542 1.34832,-4.25232 1.65611,-2.24645 4.2147,-3.93606 6.87559,-4.77801 0.85913,-0.27184 2.7033,-0.0151 2.7033,-0.0151 L 52.144953,58.878642 c 0,0 -0.912721,2.331569 -0.751402,3.520661 0.180214,1.32837 1.856941,3.567233 1.856941,3.567233 z"
       id="path3738-2"
       inkscape:connector-curvature="0"
       sodipodi:nodetypes="ccaaccac" />
    <path
       style="display:inline;fill:#4d4d4d;fill-rule:evenodd;stroke:#4d4d4d;stroke-width:0.75019258px;stroke-linecap:butt;stroke-linejoin:miter;stroke-opacity:1"
       d="m 55.585476,68.432061 44.641194,57.190919 c 0,0 0.36092,-2.58616 1.0904,-3.60979 1.56307,-2.19335 4.01315,-3.82452 6.54863,-4.73299 0.75491,-0.27049 2.40105,-0.14972 2.40105,-0.14972 L 54.533563,63.513002 c 0,0 -0.138094,1.722602 0.03963,2.555947 0.17873,0.838088 1.012288,2.363112 1.012283,2.363112 z"
       id="path3738-2-4"
       inkscape:connector-curvature="0"
       sodipodi:nodetypes="ccaaccac" />
    <path
       style="display:inline;fill:#666666;fill-rule:evenodd;stroke:#666666;stroke-width:0.64391255px;stroke-linecap:butt;stroke-linejoin:miter;stroke-opacity:1"
       d="m 59.49014,73.086847 40.499595,51.583213 c 0,0 0.339335,-2.48219 1.046155,-3.45669 1.47339,-2.03136 3.80482,-3.47795 6.17212,-4.31052 0.60607,-0.21315 1.92309,-0.12851 1.92309,-0.12851 L 57.924632,69.098538 c 0,0 0.18069,1.362689 0.423796,1.998956 0.272886,0.714207 1.14172,1.989353 1.141712,1.989353 z"
       id="path3738-2-4-9"
       inkscape:connector-curvature="0"
       sodipodi:nodetypes="ccaaccac" />
    <path
       style="display:inline;fill:#808080;fill-rule:evenodd;stroke:#808080;stroke-width:0.54974765px;stroke-linecap:butt;stroke-linejoin:miter;stroke-opacity:1"
       d="m 65.704267,80.497428 34.080884,43.268022 c 0,0 0.290379,-2.0953 0.873669,-2.9317 1.33855,-1.91938 3.43687,-3.36478 5.62033,-4.20635 0.5616,-0.21646 1.79776,-0.16818 1.79776,-0.16818 L 63.210123,75.879668 c 0,0 0.523956,1.581086 0.913046,2.312979 0.437329,0.822636 1.581104,2.304781 1.581098,2.304781 z"
       id="path3738-2-4-9-0"
       inkscape:connector-curvature="0"
       sodipodi:nodetypes="ccaaccac" />
  </g>
</svg>
