<?xml version="1.0" encoding="UTF-8" standalone="no"?>
<!-- Created with Inkscape (http://www.inkscape.org/) -->

<svg
   xmlns:dc="http://purl.org/dc/elements/1.1/"
   xmlns:cc="http://creativecommons.org/ns#"
   xmlns:rdf="http://www.w3.org/1999/02/22-rdf-syntax-ns#"
   xmlns:svg="http://www.w3.org/2000/svg"
   xmlns="http://www.w3.org/2000/svg"
   xmlns:sodipodi="http://sodipodi.sourceforge.net/DTD/sodipodi-0.dtd"
   xmlns:inkscape="http://www.inkscape.org/namespaces/inkscape"
   width="144"
   height="144"
   viewBox="0 0 144 144"
   id="svg3336"
   version="1.1"
   inkscape:version="0.91 r13725"
   sodipodi:docname="New Apps.svg">
  <defs
     id="defs3338" />
  <sodipodi:namedview
     id="base"
     pagecolor="#ffffff"
     bordercolor="#666666"
     borderopacity="1.0"
     inkscape:pageopacity="0.0"
     inkscape:pageshadow="2"
     inkscape:zoom="5.6568542"
     inkscape:cx="72.810783"
     inkscape:cy="75.448908"
     inkscape:document-units="px"
     inkscape:current-layer="layer6"
     showgrid="false"
     units="px"
     inkscape:window-width="1600"
     inkscape:window-height="838"
     inkscape:window-x="-8"
     inkscape:window-y="-8"
     inkscape:window-maximized="1" />
  <metadata
     id="metadata3341">
    <rdf:RDF>
      <cc:Work
         rdf:about="">
        <dc:format>image/svg+xml</dc:format>
        <dc:type
           rdf:resource="http://purl.org/dc/dcmitype/StillImage" />
        <dc:title />
      </cc:Work>
    </rdf:RDF>
  </metadata>
  <g
     inkscape:groupmode="layer"
     id="layer2"
     inkscape:label="Square"
     style="display:inline;opacity:1">
    <path
       style="fill:none;fill-rule:evenodd;stroke:#000000;stroke-width:1.12472498px;stroke-linecap:butt;stroke-linejoin:miter;stroke-opacity:1"
       d="m 33.921039,30.298034 63.731301,0 c 0,0 2.43371,11.633313 3.83124,13.388092 1.54817,1.654358 15.00634,2.772841 15.00634,2.772841 l -0.0503,25.656343 C 76.441194,70.647131 28.437424,72.788193 27.622579,71.845376 l 0,-34.798992 c 0,0 -0.06088,-3.135864 1.751281,-5.01089 1.711746,-1.925238 4.547179,-1.73746 4.547179,-1.73746 z"
       id="path3347"
       inkscape:connector-curvature="0"
       sodipodi:nodetypes="ccccccccc" />
    <path
       style="fill:none;fill-rule:evenodd;stroke:#000000;stroke-width:1.12472498px;stroke-linecap:butt;stroke-linejoin:miter;stroke-opacity:1"
       d="m 33.919027,119.11461 76.481283,0 c 0,0 3.18371,-0.13331 4.58124,-1.88809 1.54817,-1.65436 1.50634,-4.52284 1.50634,-4.52284 l -0.0503,-35.406362 c -39.998409,1.46818 -88.002178,-0.67288 -88.817023,0.26993 l 0,34.799012 c 0,0 -0.06088,3.13586 1.751281,5.01089 1.711746,1.92524 4.547179,1.73746 4.547179,1.73746 z"
       id="path3347-0"
       inkscape:connector-curvature="0"
       sodipodi:nodetypes="ccccccccc" />
    <path
       style="display:inline;fill:none;fill-rule:evenodd;stroke:#000000;stroke-width:1.12472498px;stroke-linecap:butt;stroke-linejoin:miter;stroke-opacity:1"
       d="m 27.631709,36.59652 0,76.48129 c 0,0 0.13331,3.18371 1.88809,4.58124 1.65436,1.54817 4.52284,1.50634 4.52284,1.50634 l 35.406348,-0.0503 c -1.46818,-39.998417 0.67288,-88.002185 -0.26993,-88.81703 l -34.798998,0 c 0,0 -3.13586,-0.06088 -5.01089,1.751281 -1.92524,1.711746 -1.73746,4.547179 -1.73746,4.547179 z"
       id="path3347-0-1"
       inkscape:connector-curvature="0"
       sodipodi:nodetypes="ccccccccc" />
    <path
       style="display:inline;fill:none;fill-rule:evenodd;stroke:#000000;stroke-width:1.12472498px;stroke-linecap:butt;stroke-linejoin:miter;stroke-opacity:1"
       d="m 116.44132,46.470918 0,66.606282 c 0,0 -0.13331,3.18371 -1.88809,4.58124 -1.65436,1.54817 -4.52284,1.50634 -4.52284,1.50634 l -35.406342,-0.0503 c 1.46818,-39.99841 -0.67288,-88.002177 0.26993,-88.817022 l 22.986492,0 c 0,0 1.82336,11.50162 3.69839,13.313781 1.92524,1.711746 14.86246,2.859679 14.86246,2.859679 z"
       id="path3347-0-1-9"
       inkscape:connector-curvature="0"
       sodipodi:nodetypes="ccccccccc" />
  </g>
  <g
     inkscape:groupmode="layer"
     id="layer4"
     inkscape:label="Black Shade"
     style="display:inline">
    <path
       style="fill:#000000;stroke:#e6e6e6;stroke-width:0;stroke-miterlimit:4;stroke-dasharray:none"
       d="m 53.56146,30.508914 c -6.833231,0.0372 -13.675496,-0.02321 -20.503094,0.07483 -1.817278,0.577263 -3.682601,1.565404 -4.450404,3.422872 -1.027906,1.853836 -0.651544,4.083363 -0.804676,6.113489 -0.100735,12.131244 -0.07073,24.263281 -0.116146,36.394846 0.339743,0.951599 1.580306,0.543843 2.388644,0.657286 14.456954,0.05991 28.910253,-0.371337 43.366779,-0.356606 0.975447,-0.301989 0.446911,-1.601553 0.636019,-2.370383 0.236197,-11.35447 0.300998,-22.712435 0.459975,-34.068369 -0.04786,-3.165091 0.211396,-6.372167 -0.169845,-9.50925 -0.455734,-0.759552 -1.585996,-0.245445 -2.334631,-0.393252 -6.157541,0.01151 -12.315081,0.02303 -18.472621,0.03454 z"
       id="path3398"
       inkscape:connector-curvature="0" />
    <path
       style="fill:#000000;stroke:#e6e6e6;stroke-width:0;stroke-miterlimit:4;stroke-dasharray:none"
       d="m 67.178483,30.505997 c -2.516215,0.58207 -1.02524,3.068478 -1.429673,4.539679 -0.06098,27.080266 -0.424478,54.178187 -1.218352,81.240104 -0.616935,2.17502 2.735904,1.89959 4.605988,1.82899 3.770653,-0.12648 7.667248,0.25512 11.358456,-0.19187 1.570222,-1.19791 0.393508,-3.30916 0.751308,-4.88462 -0.282732,-18.22608 -0.635891,-36.451865 -1.049681,-54.676517 0.446152,-1.299218 -3.940392,-1.187846 -2.308428,-1.620287 3.097734,-0.233383 1.9169,-2.897608 2.144642,-4.477607 -0.03188,-6.972045 0.279796,-13.990292 0.03496,-20.93356 -1.035734,-1.55252 -4.03396,-0.531214 -5.932288,-0.824833 -2.318975,-1.3e-5 -4.637949,3.65e-4 -6.956926,5.21e-4 z"
       id="path3400"
       inkscape:connector-curvature="0" />
    <path
       style="fill:#000000;stroke:#e6e6e6;stroke-width:0;stroke-miterlimit:4;stroke-dasharray:none"
       d="m 71.558036,41.71039 c -0.568281,0.810946 -0.110031,1.920312 -0.24729,2.849512 0.12327,9.968208 0.292074,19.935825 0.416646,29.904038 0.337285,1.043178 1.716483,0.424941 2.539438,0.596091 10.147292,0.0034 20.295643,0.118117 30.44216,0.08862 0.68602,0.117053 1.53344,-0.462306 1.04687,-1.209614 C 102.88762,65.89425 100.0115,57.851864 97.072828,49.832706 96.311156,49.071226 95.068785,49.06959 94.114177,48.622373 86.743009,46.255867 79.386333,43.82916 71.973248,41.602054 c -0.138404,0.03611 -0.276807,0.07221 -0.415212,0.108333 z"
       id="path3402"
       inkscape:connector-curvature="0" />
    <path
       style="fill:#000000;stroke:#e6e6e6;stroke-width:0;stroke-miterlimit:4;stroke-dasharray:none"
       d="m 74.984503,30.601206 c -0.37159,0.965529 -0.06519,2.091459 -0.16504,3.121094 0.02992,2.694637 -0.05987,5.411514 0.0449,8.092245 0.39308,0.816643 1.394318,-0.02655 2.036077,-0.096 6.39685,-2.054524 12.601535,-4.123685 18.995444,-6.187409 0.682897,-0.656016 0.879003,-1.749174 1.299925,-2.59026 0.10045,-0.698442 1.136365,-1.68816 0.749147,-2.384594 -0.794249,-0.507254 -2.040545,0.04906 -2.938709,-0.06447 -6.562161,-0.03772 -13.124533,-0.0116 -19.68678,-0.01951 z"
       id="path3404"
       inkscape:connector-curvature="0"
       sodipodi:nodetypes="cccccccccc" />
    <path
       style="fill:#000000;stroke:#e6e6e6;stroke-width:0;stroke-miterlimit:4;stroke-dasharray:none"
       d="m 115.56653,49.115366 c -1.07845,0.351892 -2.26397,0.571457 -3.21801,1.174805 -2.47228,6.884822 -4.9453,13.770796 -7.37647,20.670654 -0.0653,0.94824 1.12052,0.630521 1.70996,0.739259 3.07736,0.09904 6.17632,0.248605 9.24276,0.230053 0.73964,-0.352047 0.25624,-1.416721 0.39469,-2.082837 -0.0421,-6.671038 0.0931,-13.346142 -0.0974,-20.014648 0.006,-0.372761 -0.22108,-0.791298 -0.65552,-0.717286 z"
       id="path3406"
       inkscape:connector-curvature="0" />
    <path
       style="fill:#000000;stroke:#e6e6e6;stroke-width:0;stroke-miterlimit:4;stroke-dasharray:none"
       d="m 28.553795,68.39794 c -0.792397,2.901525 -0.145095,6.27737 -0.353504,9.370769 0.160794,2.572698 -0.337375,5.315887 0.276109,7.771463 2.07055,1.104563 4.484081,0.157477 6.691841,0.438621 26.696844,-0.297615 53.403311,-0.239507 80.085689,-1.658488 1.83853,-0.89034 0.73288,-4.284286 1.0333,-6.338211 -0.14865,-2.62125 0.32079,-5.402394 -0.27609,-7.907654 -2.15967,-1.124531 -4.65288,-0.530406 -6.95284,-0.85735 -5.81441,-0.138421 -11.675609,-0.389536 -17.462835,-0.139568 -1.178448,2.628542 -1.203958,-1.603068 -3.13388,-0.592273 -19.727889,-0.513914 -39.45984,-0.48433 -59.190328,-0.471831 -0.239154,0.128171 -0.478309,0.256361 -0.717462,0.384529 z"
       id="path3408"
       inkscape:connector-curvature="0" />
    <path
       style="fill:#000000;stroke:#e6e6e6;stroke-width:0;stroke-miterlimit:4;stroke-dasharray:none"
       d="m 112.99696,73.783457 c -13.626912,0.439451 -27.267341,0.418833 -40.902461,0.533652 -0.956422,0.302033 -0.390228,1.564976 -0.546093,2.315322 -0.02777,13.927532 -0.04113,27.857469 -0.51349,41.775999 0.27235,0.98463 1.565624,0.40679 2.316392,0.56133 12.096799,-0.0348 24.194964,0.0763 36.290882,-0.0734 2.22056,0.0236 4.67128,-0.8076 5.75367,-2.89143 1.13846,-2.05331 0.74245,-4.50417 0.88977,-6.75195 0.0688,-11.672274 0.0177,-23.344956 0.0336,-35.01739 -0.30208,-0.97785 -1.57848,-0.356074 -2.33403,-0.485384 -0.32939,0.01105 -0.65879,0.02212 -0.98818,0.03317 z"
       id="path3410"
       inkscape:connector-curvature="0" />
    <path
       style="fill:#000000;stroke:#e6e6e6;stroke-width:0;stroke-miterlimit:4;stroke-dasharray:none"
       d="m 69.234502,71.851206 c -0.369266,0.943447 -0.06791,2.045571 -0.165039,3.053223 0.0712,0.833866 -0.151891,1.722406 0.128907,2.517334 1.008482,0.378528 2.173063,0.156074 3.245335,0.264755 0.77978,-0.0868 1.754528,0.281726 2.387776,-0.197782 0.263963,-1.117467 0.03754,-2.353503 0.112982,-3.516436 -0.145929,-0.724477 0.372637,-1.868921 -0.448974,-2.247314 -1.677826,0.02447 -3.378626,-0.06145 -5.042685,0.04221 l -0.116659,0.04489 -0.101643,0.03912 z"
       id="path3412"
       inkscape:connector-curvature="0" />
    <path
       style="fill:#000000;stroke:#e6e6e6;stroke-width:0;stroke-miterlimit:4;stroke-dasharray:none"
       d="m 69.19837,77.976206 c -0.370502,0.966499 -0.05499,2.093172 -0.15023,3.12374 0.103303,11.963559 0.0135,23.933314 0.463294,35.890614 0.148489,0.65693 -0.260917,1.9178 0.707688,1.98174 1.343676,-0.0587 2.731037,0.11783 4.047039,-0.0898 0.545858,-0.55519 0.176299,-1.53827 0.320755,-2.27002 0.394969,-12.6948 0.419272,-25.396794 0.521122,-38.096245 -0.272697,-0.861857 -1.426953,-0.429314 -2.122559,-0.602295 -1.251386,0.0014 -2.574317,-0.222379 -3.787109,0.06226 z"
       id="path3414"
       inkscape:connector-curvature="0" />
    <path
       style="fill:#000000;stroke:#e6e6e6;stroke-width:0;stroke-miterlimit:4;stroke-dasharray:none"
       d="m 32.046497,71.481533 c -1.304721,0.07496 -2.649984,-0.120237 -3.929829,0.187508 -0.81734,0.538697 -0.259218,1.729139 -0.419781,2.557192 0.06763,12.279374 -0.02613,24.560577 0.161352,36.838757 -0.0213,1.90777 0.248195,3.91294 1.479323,5.44791 1.200819,1.60187 3.212364,2.52786 5.214628,2.35127 13.411234,0.16554 26.824427,0.0689 40.236465,0.10817 1.026821,-0.3111 0.362744,-1.64424 0.478682,-2.42319 -0.515787,-14.24923 -0.405144,-28.553806 -0.530544,-42.827606 0.05191,-0.75539 0.129787,-2.069254 -1.007791,-1.821555 -13.894739,-0.04512 -27.786974,-0.448746 -41.682505,-0.41841 z"
       id="path3416"
       inkscape:connector-curvature="0" />
    <path
       style="fill:#000000;stroke:#e6e6e6;stroke-width:0;stroke-miterlimit:4;stroke-dasharray:none"
       d="M 66.961797,71.797495 C 54.048511,72.01017 41.116318,72.168864 28.194463,72.1598 c -0.882958,0.272528 -0.358741,1.436356 -0.5,2.125 0.07218,0.939563 -0.1552,1.934726 0.128662,2.834961 0.966499,0.370478 2.09317,0.05468 3.123737,0.149783 12.458003,-0.08607 24.912724,0.32135 37.370404,0.327756 0.886025,-0.269077 0.360812,-1.436367 0.502197,-2.125 -0.07787,-1.178494 0.163179,-2.416235 -0.128906,-3.554932 -0.505217,-0.331161 -1.16013,-0.0677 -1.72876,-0.119873 z"
       id="path3418"
       inkscape:connector-curvature="0" />
  </g>
  <g
     inkscape:groupmode="layer"
     id="layer6"
     inkscape:label="Shading"
     style="display:inline">
    <path
       style="fill:#1a1a1a;fill-rule:evenodd;stroke:#1a1a1a;stroke-width:1px;stroke-linecap:butt;stroke-linejoin:miter;stroke-opacity:1"
       d="m 96.42,103.1 -8.208429,14.8 23.088429,4.2e-4 c 1.72647,-0.58643 3.68516,-0.34349 4.3,-4.9 l 0,-62.964843 L 105.926,76.683 96.390588,50.238294 68.777,41.369 96.037243,32.4 96.511049,30.445884 c 0,0 -61.466173,0.297133 -63.011049,0.654513 -2.782484,1.125829 -4.407341,2.522166 -4.3,6.357206 l 0,30.868515 L 68,50 87,103.1 Z"
       id="path3682"
       inkscape:connector-curvature="0"
       sodipodi:nodetypes="cccccccccccccccc" />
    <path
       style="display:inline;fill:#333333;fill-rule:evenodd;stroke:#333333;stroke-width:1px;stroke-linecap:butt;stroke-linejoin:miter;stroke-opacity:1"
       d="m 97.14,102.422 -6.487,14.5 20.22624,-4e-4 c 1.72647,-0.58643 3.68516,-0.34349 4.3,-4.9 l 0.3,-61.270357 L 105.926,77.26 96.253016,50.439813 68.169,41.369 95.843648,32.272909 96.267327,30.661637 c 0,0 -59.366951,0.777987 -60.911827,1.135363 -2.782484,1.125829 -4.501341,3.08496 -4.394,6.92 l -0.061,25.8 L 68.5855,48.774602 87.72,102.422 Z"
       id="path3682-1"
       inkscape:connector-curvature="0"
       sodipodi:nodetypes="cccccccccccccccc" />
    <path
       style="display:inline;fill:#4d4d4d;fill-rule:evenodd;stroke:#4d4d4d;stroke-width:1px;stroke-linecap:butt;stroke-linejoin:miter;stroke-opacity:1"
       d="m 97.886,101.828 -4.911,14.199 17.46101,0 c 1.72647,-0.58643 3.68515,-0.34349 4.29998,-4.9 L 115.336,51.491 105.926,77.866 96.050833,50.62776 67.715,41.369 95.665291,32.10166 96.007388,30.861733 c 0,0 -57.460012,1.518711 -59.004888,1.876087 -2.782484,1.12583 -4.501341,3.08496 -4.394,6.92 L 32.5475,60.587 69.033,47.778 l 19.432986,54.05 z"
       id="path3682-1-2"
       inkscape:connector-curvature="0"
       sodipodi:nodetypes="cccccccccccccccc" />
    <path
       style="display:inline;fill:#666666;fill-rule:evenodd;stroke:#666666;stroke-width:1px;stroke-linecap:butt;stroke-linejoin:miter;stroke-opacity:1"
       d="m 98.557,101.137 -3.711,14.099 14.96101,0 c 1.72647,-0.58643 3.68515,-0.34349 4.29998,-4.9 L 115.16012,52.4005 105.926,78.475 95.778,50.848 67.186,41.369 l 28.275687,-9.437667 0.2575,-0.865553 c 0,0 -55.299811,2.023844 -56.844687,2.38122 -2.782484,1.12583 -4.501341,3.08496 -4.394,6.92 l -0.061,16.4915 34.9845,-9.6715 19.732986,53.95 z"
       id="path3682-1-2-6"
       inkscape:connector-curvature="0"
       sodipodi:nodetypes="cccccccccccccccc" />
    <path
       style="display:inline;fill:#808080;fill-rule:evenodd;stroke:#808080;stroke-width:1px;stroke-linecap:butt;stroke-linejoin:miter;stroke-opacity:1"
       d="m 99.043,100.574 -2.511,13.899 12.66101,-0.3 c 1.72647,-0.58643 3.68515,-0.34349 4.29998,-4.9 L 115.047,53.137 105.926,78.412 95.831303,50.816702 67.272449,41.369 95.248,31.768 95.406,31.202 c 0,0 -53.500124,2.524624 -55.045,2.882 -2.782484,1.12583 -4.501341,3.08496 -4.394,6.92 l 0.039,12.791 33.784,-7.171 19.832986,53.95 z"
       id="path3682-1-2-6-4"
       inkscape:connector-curvature="0"
       sodipodi:nodetypes="cccccccccccccccc" />
  </g>
  <g
     inkscape:groupmode="layer"
     id="layer3"
     inkscape:label="Extra"
     style="display:inline">
    <path
       style="fill:#ffffff;fill-rule:evenodd;stroke:#ffffff;stroke-width:1.04584217px;stroke-linecap:butt;stroke-linejoin:miter;stroke-opacity:1"
       d="M 98.381513,27.483172 97.077391,33.387735 72.777,41.369 l 24.559729,7.872921 8.589271,23.723218 8.65918,-23.638199 4.17738,-0.904617 0.18489,-15.861904 c 0.054,-4.634548 -0.06,-4.766342 -5.45399,-4.668234 z"
       id="path3393"
       inkscape:connector-curvature="0"
       sodipodi:nodetypes="cccccccssc" />
  </g>
  <g
     inkscape:groupmode="layer"
     id="layer1"
     inkscape:label="Shine"
     style="display:inline">
    <path
       style="fill:none;fill-rule:evenodd;stroke:#000000;stroke-width:1.61382902px;stroke-linecap:butt;stroke-linejoin:miter;stroke-opacity:1"
       d="m 105.98988,14.658966 -7.262233,20.172863 -20.172872,6.454864 20.172872,6.455769 7.262353,20.172864 7.26211,-20.172864 20.17284,-6.455316 -20.17284,-6.455317 z"
       id="path3360"
       inkscape:connector-curvature="0"
       sodipodi:nodetypes="ccccccccc" />
    <path
       style="fill:#000000;stroke:#ffffff;stroke-width:0;stroke-miterlimit:4;stroke-dasharray:none"
       d="m 105.64471,16.96461 c -0.51543,0.644652 -0.60606,1.549122 -0.95291,2.296268 -1.89679,5.250928 -3.77368,10.509074 -5.692774,15.7519 -5.875953,2.052205 -11.856028,3.793984 -17.747965,5.80468 -0.557747,0.364878 -0.116102,1.068405 0.43615,1.093392 5.748085,1.906412 11.545663,3.661936 17.279006,5.612812 2.188753,5.79958 4.164163,11.677662 6.391993,17.463175 0.10079,0.489043 0.72439,0.928317 1.12223,0.458132 0.88527,-2.209456 1.62453,-4.490736 2.4591,-6.725732 1.34534,-3.721683 2.6862,-7.44292 4.04679,-11.158755 5.83021,-2.053633 11.79602,-3.760171 17.63951,-5.805044 0.56799,-0.277244 0.23167,-1.065424 -0.32382,-1.088065 -5.75011,-1.90525 -11.56205,-3.680574 -17.29035,-5.614493 -2.20274,-5.812906 -4.17338,-11.719214 -6.4215,-17.518484 -0.12568,-0.409093 -0.47581,-0.819975 -0.94546,-0.569786 z"
       id="path3424"
       inkscape:connector-curvature="0" />
    <path
       style="display:inline;fill:#1a1a1a;fill-rule:evenodd;stroke:#1a1a1a;stroke-width:1.37111366px;stroke-linecap:butt;stroke-linejoin:miter;stroke-opacity:1"
       d="m 106.03357,18.528547 -6.170018,17.138922 -17.138928,5.484069 17.138928,5.48484 6.170108,17.138921 6.16992,-17.138921 17.13891,-5.484455 -17.13891,-5.484454 z"
       id="path3360-0"
       inkscape:connector-curvature="0"
       sodipodi:nodetypes="ccccccccc" />
    <path
       style="display:inline;fill:#333333;fill-rule:evenodd;stroke:#333333;stroke-width:1.18118179px;stroke-linecap:butt;stroke-linejoin:miter;stroke-opacity:1"
       d="m 106.04394,21.615171 -5.31533,14.764773 -14.76478,4.724396 14.76478,4.725059 5.3154,14.764773 5.31524,-14.764773 14.76476,-4.724727 -14.76476,-4.724728 z"
       id="path3360-0-2"
       inkscape:connector-curvature="0"
       sodipodi:nodetypes="ccccccccc" />
    <path
       style="display:inline;fill:#4d4d4d;fill-rule:evenodd;stroke:#4d4d4d;stroke-width:1.01522148px;stroke-linecap:butt;stroke-linejoin:miter;stroke-opacity:1"
       d="m 106.06603,24.279394 -4.5685,12.690268 -12.690276,4.060602 12.690276,4.06117 4.56857,12.690267 4.56843,-12.690267 12.69026,-4.060886 -12.69026,-4.060886 z"
       id="path3360-0-2-7"
       inkscape:connector-curvature="0"
       sodipodi:nodetypes="ccccccccc" />
    <path
       style="display:inline;fill:#666666;fill-rule:evenodd;stroke:#666666;stroke-width:0.8598935px;stroke-linecap:butt;stroke-linejoin:miter;stroke-opacity:1"
       d="m 106.04128,26.802338 -3.86952,10.748669 -10.748682,3.439334 10.748682,3.439814 3.86958,10.748669 3.86946,-10.748669 10.74865,-3.439573 -10.74865,-3.439575 z"
       id="path3360-0-2-7-5"
       inkscape:connector-curvature="0"
       sodipodi:nodetypes="ccccccccc" />
    <path
       style="display:inline;fill:#808080;fill-rule:evenodd;stroke:#808080;stroke-width:0.71670455px;stroke-linecap:butt;stroke-linejoin:miter;stroke-opacity:1"
       d="m 106.04551,29.227838 -3.22517,8.958807 -8.958823,2.866618 8.958823,2.867018 3.22522,8.958808 3.22511,-8.958808 8.9588,-2.866818 -8.9588,-2.866818 z"
       id="path3360-0-2-7-5-3"
       inkscape:connector-curvature="0"
       sodipodi:nodetypes="ccccccccc" />
  </g>
  <g
     inkscape:groupmode="layer"
     id="layer5"
     inkscape:label="Letter"
     style="display:inline;opacity:1">
    <flowRoot
       xml:space="preserve"
       id="flowRoot3435"
       style="font-style:normal;font-variant:normal;font-weight:normal;font-stretch:normal;font-size:70px;line-height:125%;font-family:Terminal;-inkscape-font-specification:Terminal;letter-spacing:0px;word-spacing:0px;fill:#ffffff;fill-opacity:1;stroke:#ffffff;stroke-width:1px;stroke-linecap:butt;stroke-linejoin:miter;stroke-opacity:1"
       transform="matrix(1.0384392,0,0,1.0384392,-5.3750855,-12.862173)"><flowRegion
         id="flowRegion3437"><rect
           id="rect3439"
           width="86.620583"
           height="84.145714"
           x="51.618793"
           y="38.99464"
           style="font-style:normal;font-variant:normal;font-weight:normal;font-stretch:normal;font-size:70px;font-family:Terminal;-inkscape-font-specification:Terminal;fill:#ffffff;stroke:#ffffff" /></flowRegion><flowPara
         id="flowPara3441">A</flowPara></flowRoot>  </g>
</svg>
