<?xml version="1.0" encoding="UTF-8" standalone="no"?>
<!-- Created with Inkscape (http://www.inkscape.org/) -->

<svg
   xmlns:dc="http://purl.org/dc/elements/1.1/"
   xmlns:cc="http://creativecommons.org/ns#"
   xmlns:rdf="http://www.w3.org/1999/02/22-rdf-syntax-ns#"
   xmlns:svg="http://www.w3.org/2000/svg"
   xmlns="http://www.w3.org/2000/svg"
   xmlns:sodipodi="http://sodipodi.sourceforge.net/DTD/sodipodi-0.dtd"
   xmlns:inkscape="http://www.inkscape.org/namespaces/inkscape"
   width="144"
   height="144"
   viewBox="0 0 144 144"
   id="svg3336"
   version="1.1"
   inkscape:version="0.91 r13725"
   sodipodi:docname="Lunar_New Apps.svg"
   inkscape:export-filename="C:\Design\Projects\AndroidStudio\EternalMediaBar\Raw_Icons\Lunar_New Apps.png"
   inkscape:export-xdpi="89.900002"
   inkscape:export-ydpi="89.900002">
  <defs
     id="defs3338" />
  <sodipodi:namedview
     id="base"
     pagecolor="#ffffff"
     bordercolor="#666666"
     borderopacity="1.0"
     inkscape:pageopacity="0.0"
     inkscape:pageshadow="2"
     inkscape:zoom="5.6568542"
     inkscape:cx="46.382667"
     inkscape:cy="75.448908"
     inkscape:document-units="px"
     inkscape:current-layer="layer6"
     showgrid="false"
     units="px"
     inkscape:window-width="1920"
     inkscape:window-height="1017"
     inkscape:window-x="-8"
     inkscape:window-y="-8"
     inkscape:window-maximized="1" />
  <metadata
     id="metadata3341">
    <rdf:RDF>
      <cc:Work
         rdf:about="">
        <dc:format>image/svg+xml</dc:format>
        <dc:type
           rdf:resource="http://purl.org/dc/dcmitype/StillImage" />
        <dc:title />
      </cc:Work>
    </rdf:RDF>
  </metadata>
  <g
     inkscape:groupmode="layer"
     id="layer2"
     inkscape:label="Square"
     style="display:inline;opacity:1">
    <path
       style="fill:none;fill-rule:evenodd;stroke:#000000;stroke-width:1.45344758px;stroke-linecap:butt;stroke-linejoin:miter;stroke-opacity:1"
       d="m 14.039115,24.532544 80.632145,0 c 0,0 3.079103,15.35515 4.847243,17.671333 1.958727,2.183636 18.985857,3.659955 18.985857,3.659955 l -0.0636,33.864556 C 67.83515,77.790496 7.1013053,80.616546 6.0703724,79.372094 l 0,-45.932206 c 0,0 -0.077024,-4.139118 2.2157015,-6.61402 2.1656821,-2.541178 5.7530411,-2.293324 5.7530411,-2.293324 z"
       id="path3347"
       inkscape:connector-curvature="0"
       sodipodi:nodetypes="ccccccccc" />
    <path
       style="fill:none;fill-rule:evenodd;stroke:#000000;stroke-width:1.45344758px;stroke-linecap:butt;stroke-linejoin:miter;stroke-opacity:1"
       d="m 14.036569,141.76414 96.763281,0 c 0,0 4.028,-0.17596 5.79614,-2.49215 1.95872,-2.18364 1.9058,-5.96983 1.9058,-5.96983 l -0.0636,-46.733887 C 67.832603,88.506166 7.0987597,85.680118 6.0678267,86.924561 l 0,45.932229 c 0,0 -0.077024,4.13911 2.2157016,6.61403 2.1656817,2.54118 5.7530407,2.29332 5.7530407,2.29332 z"
       id="path3347-0"
       inkscape:connector-curvature="0"
       sodipodi:nodetypes="ccccccccc" />
    <path
       style="display:inline;fill:none;fill-rule:evenodd;stroke:#000000;stroke-width:1.45344758px;stroke-linecap:butt;stroke-linejoin:miter;stroke-opacity:1"
       d="m 6.0819235,32.846099 0,100.949901 c 0,0 0.1686623,4.20226 2.3887908,6.04691 2.0930777,2.04347 5.7222477,1.98826 5.7222477,1.98826 l 44.795724,-0.0664 C 57.131161,88.969692 59.840007,25.608116 58.647174,24.532578 l -44.027312,0 c 0,0 -3.967456,-0.08036 -6.3397231,2.311567 -2.4357926,2.259383 -2.1982154,6.001954 -2.1982154,6.001954 z"
       id="path3347-0-1"
       inkscape:connector-curvature="0"
       sodipodi:nodetypes="ccccccccc" />
    <path
       style="display:inline;fill:none;fill-rule:evenodd;stroke:#000000;stroke-width:1.45344758px;stroke-linecap:butt;stroke-linejoin:miter;stroke-opacity:1"
       d="m 118.44287,45.879606 0,87.915584 c 0,0 -0.16866,4.20226 -2.38879,6.04691 -2.09307,2.04347 -5.72225,1.98826 -5.72225,1.98826 l -44.795713,-0.0664 C 67.393642,88.968896 64.684796,25.607321 65.877629,24.531783 l 29.082258,0 c 0,0 2.306896,15.181325 4.679163,17.573249 2.43579,2.259384 18.80382,3.774574 18.80382,3.774574 z"
       id="path3347-0-1-9"
       inkscape:connector-curvature="0"
       sodipodi:nodetypes="ccccccccc" />
  </g>
  <g
     inkscape:groupmode="layer"
     id="layer4"
     inkscape:label="Black Shade"
     style="display:inline">
    <path
       style="fill:#000000;stroke:#e6e6e6;stroke-width:0;stroke-miterlimit:4;stroke-dasharray:none"
       d="m 38.887961,24.810891 c -8.645329,0.0491 -17.302088,-0.03064 -25.94029,0.09876 -2.299201,0.761946 -4.659187,2.066222 -5.6306029,4.517948 -1.3004954,2.446933 -0.8243263,5.389751 -1.0180673,8.069373 -0.1274487,16.012384 -0.089487,32.025814 -0.1469466,48.038621 0.4298391,1.256043 1.9993859,0.717834 3.0220862,0.867571 18.2907796,0.07909 36.5769356,-0.490134 54.8671736,-0.47069 1.234126,-0.398603 0.565428,-2.113937 0.804685,-3.128737 0.298834,-14.987097 0.380819,-29.978807 0.581955,-44.967837 -0.06055,-4.177696 0.267457,-8.410809 -0.214886,-12.551537 -0.576589,-1.002555 -2.006584,-0.32397 -2.953749,-0.519064 -7.790454,0.0152 -15.580905,0.0304 -23.371358,0.04559 z"
       id="path3398"
       inkscape:connector-curvature="0" />
    <path
       style="fill:#000000;stroke:#e6e6e6;stroke-width:0;stroke-miterlimit:4;stroke-dasharray:none"
       d="m 56.116069,24.80704 c -3.183487,0.768291 -1.297122,4.050174 -1.808807,5.992056 -0.07715,35.744034 -0.537045,71.511364 -1.541444,107.231184 -0.78054,2.87088 3.461434,2.50732 5.827445,2.41414 4.770588,-0.16695 9.700518,0.33674 14.370594,-0.25326 1.986627,-1.58115 0.497861,-4.36785 0.950547,-6.44735 -0.35771,-24.05713 -0.804522,-48.113879 -1.328045,-72.16913 0.564466,-1.714876 -4.985342,-1.567873 -2.920598,-2.138664 3.919219,-0.308049 2.42524,-3.824637 2.713377,-5.910125 -0.04033,-9.202605 0.353996,-18.466194 0.04424,-27.630817 -1.310399,-2.049217 -5.103723,-0.701166 -7.505466,-1.088722 -2.933942,-1.6e-5 -5.867882,4.82e-4 -8.801827,6.88e-4 z"
       id="path3400"
       inkscape:connector-curvature="0" />
    <path
       style="fill:#000000;stroke:#e6e6e6;stroke-width:0;stroke-miterlimit:4;stroke-dasharray:none"
       d="m 61.657032,39.596046 c -0.718983,1.070391 -0.13921,2.534676 -0.312869,3.761154 0.155961,13.15733 0.369529,26.313879 0.527136,39.471214 0.426729,1.376921 2.171676,0.560892 3.21287,0.786798 12.838242,0.0045 25.677825,0.155906 38.515091,0.116972 0.86794,0.154502 1.94009,-0.610211 1.32448,-1.596605 -3.62886,-10.618549 -7.267696,-21.23393 -10.985672,-31.81865 -0.963659,-1.005101 -2.535494,-1.00726 -3.743254,-1.597554 -9.325921,-3.123621 -18.633507,-6.326702 -28.012461,-9.266325 -0.175107,0.04766 -0.350212,0.09531 -0.525321,0.142992 z"
       id="path3402"
       inkscape:connector-curvature="0" />
    <path
       style="fill:#000000;stroke:#e6e6e6;stroke-width:0;stroke-miterlimit:4;stroke-dasharray:none"
       d="m 65.99216,24.932709 c -0.470131,1.27443 -0.08248,2.760578 -0.208806,4.119623 0.03785,3.55673 -0.07575,7.142816 0.05681,10.681191 0.49732,1.077911 1.764075,-0.03504 2.576023,-0.126713 8.093224,-2.711826 15.943324,-5.442973 24.032827,-8.166942 0.863994,-0.865895 1.112105,-2.308785 1.644651,-3.41896 0.127088,-0.921894 1.437716,-2.228252 0.947813,-3.147496 -1.004876,-0.669539 -2.581676,0.06476 -3.718022,-0.08509 -8.302375,-0.04978 -16.605017,-0.01531 -24.907499,-0.02575 z"
       id="path3404"
       inkscape:connector-curvature="0"
       sodipodi:nodetypes="cccccccccc" />
    <path
       style="fill:#000000;stroke:#e6e6e6;stroke-width:0;stroke-miterlimit:4;stroke-dasharray:none"
       d="m 117.3361,49.37009 c -1.36444,0.464472 -2.86435,0.754283 -4.07139,1.55066 -3.12791,9.087478 -6.25674,18.176476 -9.33263,27.2838 -0.0826,1.25161 1.41767,0.832244 2.16342,0.975769 3.89344,0.130727 7.81421,0.328142 11.69384,0.303655 0.93578,-0.464678 0.32419,-1.869972 0.49935,-2.749198 -0.0533,-8.805298 0.11779,-17.615963 -0.12323,-26.417919 0.007,-0.492019 -0.2797,-1.044457 -0.82935,-0.946767 z"
       id="path3406"
       inkscape:connector-curvature="0" />
    <path
       style="fill:#000000;stroke:#e6e6e6;stroke-width:0;stroke-miterlimit:4;stroke-dasharray:none"
       d="m 7.2485366,74.821723 c -1.002532,3.829808 -0.1835725,8.285684 -0.4472494,12.368752 0.2034349,3.395779 -0.4268431,7.016595 0.3493301,10.257777 2.6196373,1.457947 5.6732107,0.207861 8.4664437,0.578948 33.776555,-0.392828 67.565285,-0.31613 101.323539,-2.189081 2.32609,-1.175186 0.92724,-5.654954 1.30732,-8.365991 -0.18807,-3.459864 0.40586,-7.130778 -0.34931,-10.437543 -2.73239,-1.484302 -5.88677,-0.700099 -8.79666,-1.131642 -7.35632,-0.182705 -14.771848,-0.51416 -22.093782,-0.18422 -1.490959,3.46949 -1.523235,-2.115936 -3.964951,-0.781758 C 58.083708,74.258635 33.11906,74.297684 8.1562617,74.314181 7.8536867,74.483358 7.5511104,74.65256 7.2485366,74.821733 Z"
       id="path3408"
       inkscape:connector-curvature="0" />
    <path
       style="fill:#000000;stroke:#e6e6e6;stroke-width:0;stroke-miterlimit:4;stroke-dasharray:none"
       d="m 114.0851,81.930225 c -17.240614,0.580044 -34.498336,0.55283 -51.749341,0.704382 -1.210055,0.398662 -0.493712,2.065658 -0.690911,3.056062 -0.03513,18.383351 -0.05204,36.769891 -0.649661,55.141371 0.344573,1.29964 1.98081,0.53692 2.930673,0.74091 15.304737,-0.046 30.611204,0.1007 45.91482,-0.0969 2.80943,0.0311 5.91006,-1.06598 7.27949,-3.81648 1.44037,-2.71023 0.93933,-5.94518 1.12572,-8.91209 0.087,-15.40658 0.0224,-30.813699 0.0425,-46.220483 -0.38219,-1.290692 -1.99708,-0.469992 -2.95299,-0.640672 -0.41675,0.01459 -0.8335,0.0292 -1.25024,0.04379 z"
       id="path3410"
       inkscape:connector-curvature="0" />
    <path
       style="fill:#000000;stroke:#e6e6e6;stroke-width:0;stroke-miterlimit:4;stroke-dasharray:none"
       d="m 58.717322,79.37979 c -0.467192,1.245284 -0.08592,2.700009 -0.208806,4.030039 0.09008,1.100644 -0.19217,2.273453 0.163092,3.322702 1.275921,0.499631 2.749336,0.206007 4.105963,0.349457 0.986569,-0.114569 2.219809,0.371859 3.020988,-0.261057 0.333963,-1.474977 0.04749,-3.106457 0.142943,-4.641447 -0.184628,-0.956259 0.471456,-2.466843 -0.568037,-2.966295 -2.122766,0.0323 -4.2746,-0.08111 -6.37995,0.05572 l -0.147595,0.05926 -0.128598,0.05164 z"
       id="path3412"
       inkscape:connector-curvature="0" />
    <path
       style="fill:#000000;stroke:#e6e6e6;stroke-width:0;stroke-miterlimit:4;stroke-dasharray:none"
       d="m 58.671608,87.464356 c -0.468755,1.275711 -0.06958,2.762839 -0.190069,4.123116 0.130697,15.791048 0.01708,31.590288 0.586154,47.373068 0.187867,0.8671 -0.330108,2.53137 0.89536,2.61576 1.700004,-0.0775 3.455278,0.15553 5.120269,-0.11852 0.690614,-0.73283 0.223051,-2.03042 0.405816,-2.99628 0.49971,-16.75623 0.530458,-33.52197 0.659318,-50.284344 -0.345013,-1.13759 -1.805366,-0.566663 -2.685439,-0.794986 -1.58324,0.0019 -3.256998,-0.293524 -4.791409,0.08217 z"
       id="path3414"
       inkscape:connector-curvature="0" />
    <path
       style="fill:#000000;stroke:#e6e6e6;stroke-width:0;stroke-miterlimit:4;stroke-dasharray:none"
       d="m 11.667466,78.891848 c -1.65072,0.09894 -3.3527318,-0.158704 -4.9719777,0.247497 -1.0340896,0.711042 -0.3279598,2.282341 -0.5311023,3.375313 0.085564,16.207903 -0.03306,32.418222 0.2041407,48.624552 -0.026948,2.51812 0.3140137,5.16481 1.8716234,7.19086 1.519263,2.11435 4.0642479,3.33659 6.5974909,3.1035 16.967746,0.2185 33.937971,0.0909 50.906735,0.14278 1.299123,-0.41062 0.458939,-2.17028 0.605623,-3.19843 C 65.697431,119.56994 65.837416,100.68891 65.67876,81.848504 65.744432,80.851443 65.842966,79.117235 64.403715,79.44418 46.824243,79.38463 29.247939,78.851867 11.667466,78.891909 Z"
       id="path3416"
       inkscape:connector-curvature="0" />
    <path
       style="fill:#000000;stroke:#e6e6e6;stroke-width:0;stroke-miterlimit:4;stroke-dasharray:none"
       d="M 55.84192,79.308896 C 39.504172,79.589611 23.142503,79.799076 6.7939137,79.787113 5.6768049,80.146831 6.3400385,81.683 6.1613192,82.591962 c 0.091321,1.240156 -0.1963574,2.553701 0.1627817,3.741948 1.222804,0.489005 2.6482558,0.07218 3.9521181,0.197703 15.761729,-0.113606 31.519306,0.42416 47.280626,0.432614 1.120989,-0.355163 0.456496,-1.895902 0.635374,-2.804849 -0.09852,-1.555529 0.206453,-3.18926 -0.16309,-4.692258 -0.639195,-0.43711 -1.467784,-0.08936 -2.187209,-0.158224 z"
       id="path3418"
       inkscape:connector-curvature="0" />
  </g>
  <g
     inkscape:groupmode="layer"
     id="layer6"
     inkscape:label="Shading"
     style="display:inline">
    <path
       style="fill:#1a1a1a;fill-rule:evenodd;stroke:#1a1a1a;stroke-width:1.29226935px;stroke-linecap:butt;stroke-linejoin:miter;stroke-opacity:1"
       d="m 93.112117,120.62598 -10.385215,19.53496 29.211228,5.6e-4 c 2.18431,-0.77405 4.66243,-0.45339 5.44032,-6.46766 l 0,-83.109136 L 105.139,85.757417 93.074905,50.852276 58.138496,39.145435 92.627856,27.30699 93.227311,24.727695 c 0,0 -77.76633,0.392195 -79.720889,0.863911 -3.5203693,1.486015 -5.5761205,3.329081 -5.4403139,8.391062 l 0,40.744255 49.0893349,-24.189179 24.038593,70.088236 z"
       id="path3682"
       inkscape:connector-curvature="0"
       sodipodi:nodetypes="cccccccccccccccc" />
    <path
       style="display:inline;fill:#333333;fill-rule:evenodd;stroke:#333333;stroke-width:1.29226935px;stroke-linecap:butt;stroke-linejoin:miter;stroke-opacity:1"
       d="m 94.023053,119.73108 -8.207281,19.13897 25.590018,-5.3e-4 c 2.18431,-0.77404 4.66242,-0.45338 5.44031,-6.46765 L 117.22566,51.529332 105.139,86.519016 92.90085,51.118266 57.369261,39.145435 92.382922,27.139239 92.918957,25.012474 c 0,0 -75.110417,1.026888 -77.064977,1.498599 -3.520369,1.486014 -5.695048,4.071929 -5.559241,9.13391 l -0.07718,34.054174 47.67865,-20.778851 24.20876,70.810774 z"
       id="path3682-1"
       inkscape:connector-curvature="0"
       sodipodi:nodetypes="cccccccccccccccc" />
    <path
       style="display:inline;fill:#4d4d4d;fill-rule:evenodd;stroke:#4d4d4d;stroke-width:1.29226935px;stroke-linecap:butt;stroke-linejoin:miter;stroke-opacity:1"
       d="m 94.966884,118.94703 -6.213344,18.74169 22.09148,0 c 2.18431,-0.77405 4.66241,-0.45339 5.44029,-6.46767 L 117.04443,52.505759 105.139,87.318892 92.64505,51.366344 56.794865,39.145435 92.157267,26.913202 92.590084,25.276587 c 0,0 -72.697779,2.004591 -74.652338,2.476302 -3.520368,1.486015 -5.695048,4.071929 -5.559241,9.13391 L 12.301335,64.511835 58.46239,47.604862 83.048792,118.94703 Z"
       id="path3682-1-2"
       inkscape:connector-curvature="0"
       sodipodi:nodetypes="cccccccccccccccc" />
    <path
       style="display:inline;fill:#666666;fill-rule:evenodd;stroke:#666666;stroke-width:1.29226935px;stroke-linecap:butt;stroke-linejoin:miter;stroke-opacity:1"
       d="m 95.815826,118.03496 -4.695117,18.60969 18.928511,0 c 2.18431,-0.77405 4.66241,-0.45339 5.44029,-6.46766 L 116.82191,53.706234 105.139,88.122729 92.299865,51.657045 56.12558,39.145435 91.899669,26.688383 92.225456,25.545914 c 0,0 -69.964716,2.671331 -71.919276,3.143042 -3.520369,1.486016 -5.695048,4.071929 -5.559241,9.13391 l -0.07718,21.767613 44.262006,-12.765695 24.965958,71.210176 z"
       id="path3682-1-2-6"
       inkscape:connector-curvature="0"
       sodipodi:nodetypes="cccccccccccccccc" />
    <path
       style="display:inline;fill:#808080;fill-rule:evenodd;stroke:#808080;stroke-width:1.29226935px;stroke-linecap:butt;stroke-linejoin:miter;stroke-opacity:1"
       d="m 96.430707,117.29184 -3.176889,18.3457 16.018572,-0.39598 c 2.18431,-0.77405 4.66241,-0.45338 5.44029,-6.46765 L 116.67879,54.678363 105.139,88.039573 92.367304,51.615734 56.234954,39.145435 l 35.394361,-12.67264 0.1999,-0.74708 c 0,0 -67.687772,3.332325 -69.642332,3.804036 -3.520369,1.486015 -5.695047,4.071929 -5.559241,9.13391 l 0.04934,16.883215 42.743147,-9.465213 25.092476,71.210177 z"
       id="path3682-1-2-6-4"
       inkscape:connector-curvature="0"
       sodipodi:nodetypes="cccccccccccccccc" />
  </g>
  <g
     inkscape:groupmode="layer"
     id="layer3"
     inkscape:label="Extra"
     style="display:inline">
    <path
       style="fill:#ffffff;fill-rule:evenodd;stroke:#ffffff;stroke-width:1.35150969px;stroke-linecap:butt;stroke-linejoin:miter;stroke-opacity:1"
       d="M 95.593802,20.817125 93.943841,28.61073 63.199252,39.145435 94.271953,49.537134 105.139,80.850103 l 10.9555,-31.20075 5.28517,-1.19403 0.23393,-20.936591 c 0.0684,-6.117276 -0.076,-6.291234 -6.90033,-6.161738 z"
       id="path3393"
       inkscape:connector-curvature="0"
       sodipodi:nodetypes="cccccccssc" />
  </g>
  <g
     inkscape:groupmode="layer"
     id="layer1"
     inkscape:label="Shine"
     style="display:inline">
    <path
       style="fill:none;fill-rule:evenodd;stroke:#000000;stroke-width:2.08550191px;stroke-linecap:butt;stroke-linejoin:miter;stroke-opacity:1"
       d="m 105.21982,3.8900802 -9.188093,26.6267518 -25.522498,8.519964 25.522498,8.521158 9.188253,26.626753 9.18794,-26.626753 25.52245,-8.52056 -25.52245,-8.520562 z"
       id="path3360"
       inkscape:connector-curvature="0"
       sodipodi:nodetypes="ccccccccc" />
    <path
       style="fill:#000000;stroke:#ffffff;stroke-width:0;stroke-miterlimit:4;stroke-dasharray:none"
       d="m 104.78312,6.9333681 c -0.65212,0.8508945 -0.76678,2.0447315 -1.20561,3.0309106 -2.3998,6.9308533 -4.774421,13.8712343 -7.202438,20.7913943 -7.434191,2.708765 -15.000117,5.00779 -22.454531,7.661766 -0.705655,0.481613 -0.146891,1.410219 0.551812,1.4432 7.272414,2.516328 14.607447,4.833496 21.86121,7.408514 2.769186,7.655036 5.268457,15.413688 8.087077,23.050155 0.12752,0.645503 0.91649,1.225313 1.41984,0.604702 1.12003,-2.916325 2.05533,-5.927453 3.11122,-8.877489 1.70211,-4.912359 3.39855,-9.824128 5.11995,-14.728767 7.37632,-2.710651 14.9242,-4.96316 22.31732,-7.662248 0.71861,-0.365942 0.2931,-1.406284 -0.40969,-1.436169 C 128.7043,35.704542 121.3511,33.36124 114.10371,30.808604 111.31684,23.13598 108.8236,15.340071 105.9793,7.6854444 105.8203,7.1454709 105.37732,6.603136 104.78312,6.9333681 Z"
       id="path3424"
       inkscape:connector-curvature="0" />
    <path
       style="display:inline;fill:#1a1a1a;fill-rule:evenodd;stroke:#1a1a1a;stroke-width:1.7718482px;stroke-linecap:butt;stroke-linejoin:miter;stroke-opacity:1"
       d="m 105.2751,8.9976533 -7.806239,22.6221637 -21.683984,7.238584 21.683984,7.2396 7.806359,22.622163 7.80611,-22.622163 21.68396,-7.239092 -21.68396,-7.239092 z"
       id="path3360-0"
       inkscape:connector-curvature="0"
       sodipodi:nodetypes="ccccccccc" />
    <path
       style="display:inline;fill:#333333;fill-rule:evenodd;stroke:#333333;stroke-width:1.52640498px;stroke-linecap:butt;stroke-linejoin:miter;stroke-opacity:1"
       d="m 105.28822,13.071779 -6.724897,19.488455 -18.680238,6.235869 18.680238,6.236743 6.724987,19.488456 6.72478,-19.488456 18.68022,-6.236305 -18.68022,-6.236307 z"
       id="path3360-0-2"
       inkscape:connector-curvature="0"
       sodipodi:nodetypes="ccccccccc" />
    <path
       style="display:inline;fill:#4d4d4d;fill-rule:evenodd;stroke:#4d4d4d;stroke-width:1.3119396px;stroke-linecap:butt;stroke-linejoin:miter;stroke-opacity:1"
       d="m 105.31617,16.588365 -5.780018,16.750255 -16.055598,5.359708 16.055598,5.360457 5.780098,16.750254 5.77994,-16.750254 16.05557,-5.360082 -16.05557,-5.360083 z"
       id="path3360-0-2-7"
       inkscape:connector-curvature="0"
       sodipodi:nodetypes="ccccccccc" />
    <path
       style="display:inline;fill:#666666;fill-rule:evenodd;stroke:#666666;stroke-width:1.11121404px;stroke-linecap:butt;stroke-linejoin:miter;stroke-opacity:1"
       d="m 105.28486,19.918472 -4.89568,14.187483 -13.599114,4.539678 13.599114,4.540311 4.89575,14.187482 4.8956,-14.187482 13.59907,-4.539993 -13.59907,-4.539996 z"
       id="path3360-0-2-7-5"
       inkscape:connector-curvature="0"
       sodipodi:nodetypes="ccccccccc" />
    <path
       style="display:inline;fill:#808080;fill-rule:evenodd;stroke:#808080;stroke-width:0.9261753px;stroke-linecap:butt;stroke-linejoin:miter;stroke-opacity:1"
       d="m 105.29021,23.119961 -4.08045,11.824991 -11.334608,3.783733 11.334608,3.784261 4.08051,11.824993 4.08037,-11.824993 11.33458,-3.783997 -11.33458,-3.783997 z"
       id="path3360-0-2-7-5-3"
       inkscape:connector-curvature="0"
       sodipodi:nodetypes="ccccccccc" />
  </g>
  <g
     inkscape:groupmode="layer"
     id="layer5"
     inkscape:label="Letter"
     style="display:inline;opacity:1">
    <flowRoot
       xml:space="preserve"
       id="flowRoot3435"
       style="font-style:normal;font-variant:normal;font-weight:normal;font-stretch:normal;font-size:70px;line-height:125%;font-family:Terminal;-inkscape-font-specification:Terminal;letter-spacing:0px;word-spacing:0px;fill:#ffffff;fill-opacity:1;stroke:#ffffff;stroke-width:1px;stroke-linecap:butt;stroke-linejoin:miter;stroke-opacity:1"
       transform="matrix(1.3138219,0,0,1.3706662,-35.677911,-32.435875)"><flowRegion
         id="flowRegion3437"><rect
           id="rect3439"
           width="86.620583"
           height="84.145714"
           x="51.618793"
           y="38.99464"
           style="font-style:normal;font-variant:normal;font-weight:normal;font-stretch:normal;font-size:70px;font-family:Terminal;-inkscape-font-specification:Terminal;fill:#ffffff;stroke:#ffffff" /></flowRegion><flowPara
         id="flowPara3441">A</flowPara></flowRoot>  </g>
</svg>
