<?xml version="1.0" encoding="UTF-8" standalone="no"?>
<!-- Created with Inkscape (http://www.inkscape.org/) -->

<svg
   xmlns:dc="http://purl.org/dc/elements/1.1/"
   xmlns:cc="http://creativecommons.org/ns#"
   xmlns:rdf="http://www.w3.org/1999/02/22-rdf-syntax-ns#"
   xmlns:svg="http://www.w3.org/2000/svg"
   xmlns="http://www.w3.org/2000/svg"
   xmlns:sodipodi="http://sodipodi.sourceforge.net/DTD/sodipodi-0.dtd"
   xmlns:inkscape="http://www.inkscape.org/namespaces/inkscape"
   width="144"
   height="144"
   viewBox="0 0 144 144"
   id="svg3336"
   version="1.1"
   inkscape:version="0.91 r13725"
   sodipodi:docname="New Apps.svg">
  <defs
     id="defs3338" />
  <sodipodi:namedview
     id="base"
     pagecolor="#ffffff"
     bordercolor="#666666"
     borderopacity="1.0"
     inkscape:pageopacity="0.0"
     inkscape:pageshadow="2"
     inkscape:zoom="2"
     inkscape:cx="49.592498"
     inkscape:cy="65.304604"
     inkscape:document-units="px"
     inkscape:current-layer="layer4"
     showgrid="false"
     units="px"
     inkscape:window-width="1600"
     inkscape:window-height="838"
     inkscape:window-x="-8"
     inkscape:window-y="-8"
     inkscape:window-maximized="1" />
  <metadata
     id="metadata3341">
    <rdf:RDF>
      <cc:Work
         rdf:about="">
        <dc:format>image/svg+xml</dc:format>
        <dc:type
           rdf:resource="http://purl.org/dc/dcmitype/StillImage" />
        <dc:title />
      </cc:Work>
    </rdf:RDF>
  </metadata>
  <g
     inkscape:groupmode="layer"
     id="layer2"
     inkscape:label="Square"
     style="display:inline;opacity:1">
    <path
       style="fill:none;fill-rule:evenodd;stroke:#000000;stroke-width:1.23112297px;stroke-linecap:butt;stroke-linejoin:miter;stroke-opacity:1"
       d="m 115.87172,25.587932 -69.760224,0 c 0,0 -2.663936,12.733813 -4.193671,14.654592 -1.694626,1.810859 -16.425926,3.035149 -16.425926,3.035149 l 0.05506,28.083408 c 43.782238,-1.607067 96.327111,0.736537 97.219051,-0.295469 l 0,-38.090943 c 0,0 0.0667,-3.432513 -1.91696,-5.484915 -1.87366,-2.107364 -4.97732,-1.901822 -4.97732,-1.901822 z"
       id="path3347"
       inkscape:connector-curvature="0"
       sodipodi:nodetypes="ccccccccc" />
    <path
       style="fill:none;fill-rule:evenodd;stroke:#000000;stroke-width:1.23112297px;stroke-linecap:butt;stroke-linejoin:miter;stroke-opacity:1"
       d="m 115.87392,122.80647 -83.716339,0 c 0,0 -3.484886,-0.14592 -5.014621,-2.0667 -1.694625,-1.81086 -1.648838,-4.9507 -1.648838,-4.9507 l 0.05505,-38.755768 c 43.78222,1.607069 96.327108,-0.736533 97.219038,0.295465 l 0,38.090963 c 0,0 0.0667,3.43251 -1.91695,5.48492 -1.87368,2.10737 -4.97734,1.90182 -4.97734,1.90182 z"
       id="path3347-0"
       inkscape:connector-curvature="0"
       sodipodi:nodetypes="ccccccccc" />
    <path
       style="display:inline;fill:none;fill-rule:evenodd;stroke:#000000;stroke-width:1.23112297px;stroke-linecap:butt;stroke-linejoin:miter;stroke-opacity:1"
       d="m 122.75602,32.482248 0,83.716342 c 0,0 -0.14592,3.48489 -2.06671,5.01462 -1.81085,1.69463 -4.95069,1.64885 -4.95069,1.64885 l -38.755761,-0.0551 c 1.607069,-43.782194 -0.736533,-96.327072 0.295465,-97.219 l 38.090956,0 c 0,0 3.43251,-0.06664 5.48491,1.91695 2.10737,1.873676 1.90183,4.977338 1.90183,4.977338 z"
       id="path3347-0-1"
       inkscape:connector-curvature="0"
       sodipodi:nodetypes="ccccccccc" />
    <path
       style="display:inline;fill:none;fill-rule:evenodd;stroke:#000000;stroke-width:1.23112297px;stroke-linecap:butt;stroke-linejoin:miter;stroke-opacity:1"
       d="m 25.545097,43.290755 0,72.907175 c 0,0 0.145922,3.48488 2.066702,5.01462 1.81086,1.69462 4.950696,1.64883 4.950696,1.64883 l 38.755747,-0.0551 C 69.711174,79.024106 72.054776,26.47923 71.022778,25.587301 l -25.160992,0 c 0,0 -1.995848,12.589663 -4.048254,14.573252 -2.107366,1.873676 -16.268435,3.130202 -16.268435,3.130202 z"
       id="path3347-0-1-9"
       inkscape:connector-curvature="0"
       sodipodi:nodetypes="ccccccccc" />
  </g>
  <g
     inkscape:groupmode="layer"
     id="layer4"
     inkscape:label="Black Shade"
     style="display:inline">
    <path
       style="fill:#000000;stroke:#e6e6e6;stroke-width:0;stroke-miterlimit:4;stroke-dasharray:none"
       d="m 94.37333,25.818761 c 7.47966,0.04072 14.96918,-0.0254 22.44267,0.08191 1.98919,0.631872 4.03097,1.71349 4.8714,3.746673 1.12515,2.029207 0.71319,4.469645 0.88081,6.69182 0.11025,13.278847 0.0773,26.558563 0.12712,39.837763 -0.37188,1.041618 -1.72979,0.595289 -2.6146,0.719464 C 104.25616,76.961966 88.435597,76.489924 72.611495,76.506048 71.543771,76.175492 72.122306,74.75299 71.915309,73.911429 71.656768,61.482837 71.585837,49.05042 71.411821,36.620225 c 0.05239,-3.464505 -0.231394,-6.974968 0.185912,-10.408816 0.498846,-0.831404 1.73603,-0.268663 2.555485,-0.430453 6.740038,0.0126 13.48007,0.02521 20.220112,0.03781 z"
       id="path3398"
       inkscape:connector-curvature="0" />
    <path
       style="fill:#000000;stroke:#e6e6e6;stroke-width:0;stroke-miterlimit:4;stroke-dasharray:none"
       d="m 79.468151,25.815568 c 2.754246,0.637133 1.122226,3.358753 1.564919,4.969128 0.06675,29.642033 0.464633,59.303391 1.333606,88.925344 0.675296,2.38077 -2.994718,2.07928 -5.04171,2.00201 -4.127353,-0.13845 -8.392562,0.27925 -12.432954,-0.21002 -1.718764,-1.31124 -0.430734,-3.62221 -0.822381,-5.34671 0.309478,-19.950249 0.696045,-39.900171 1.14898,-59.848858 -0.488358,-1.422123 4.313148,-1.300215 2.526802,-1.773565 -3.390776,-0.25546 -2.098236,-3.171718 -2.347523,-4.901184 0.0349,-7.631593 -0.306264,-15.31376 -0.03826,-22.913854 1.133714,-1.699387 4.415569,-0.581467 6.493477,-0.902861 2.538348,-1.5e-5 5.076695,3.99e-4 7.615044,5.7e-4 z"
       id="path3400"
       inkscape:connector-curvature="0" />
    <path
       style="fill:#000000;stroke:#e6e6e6;stroke-width:0;stroke-miterlimit:4;stroke-dasharray:none"
       d="m 74.674296,38.079885 c 0.62204,0.887661 0.12044,2.101972 0.270684,3.119073 -0.134931,10.911191 -0.319704,21.821735 -0.45606,32.732931 -0.369192,1.141862 -1.878862,0.465141 -2.779667,0.652481 -11.107216,0.0037 -22.215591,0.129291 -33.321959,0.097 -0.750917,0.128126 -1.678502,-0.50604 -1.145902,-1.324043 3.139572,-8.805816 6.28777,-17.609004 9.504438,-26.386767 0.833725,-0.833515 2.193623,-0.835305 3.238536,-1.324829 8.068474,-2.590375 16.121084,-5.246646 24.23544,-7.684434 0.151497,0.03953 0.302993,0.07904 0.45449,0.118581 z"
       id="path3402"
       inkscape:connector-curvature="0" />
    <path
       style="fill:#000000;stroke:#e6e6e6;stroke-width:0;stroke-miterlimit:4;stroke-dasharray:none"
       d="m 70.923689,25.919783 c 0.406742,1.056867 0.07135,2.289309 0.180652,3.416347 -0.03275,2.949547 0.06553,5.923438 -0.04914,8.857763 C 70.624932,39.08779 69.528978,38.164834 68.82651,38.088812 61.824524,35.839931 55.032882,33.57503 48.034115,31.31608 47.286617,30.598006 47.071959,29.401436 46.611219,28.480784 46.501266,27.71627 45.367354,26.632926 45.791203,25.870609 c 0.869384,-0.555239 2.233578,0.0537 3.216708,-0.07057 7.182935,-0.04129 14.366101,-0.0127 21.54913,-0.02135 z"
       id="path3404"
       inkscape:connector-curvature="0"
       sodipodi:nodetypes="cccccccccc" />
    <path
       style="fill:#000000;stroke:#e6e6e6;stroke-width:0;stroke-miterlimit:4;stroke-dasharray:none"
       d="m 26.502641,46.185365 c 1.18047,0.385181 2.47814,0.625516 3.522431,1.28594 2.706155,7.53612 5.413121,15.073501 8.074277,22.626078 0.07148,1.037943 -1.22652,0.690168 -1.87172,0.809192 -3.368475,0.108409 -6.760594,0.272123 -10.117117,0.251816 -0.809609,-0.38535 -0.28048,-1.550741 -0.432027,-2.279871 0.04608,-7.302112 -0.101907,-14.608675 0.106614,-21.908014 -0.0066,-0.408024 0.241994,-0.866155 0.717531,-0.785141 z"
       id="path3406"
       inkscape:connector-curvature="0" />
    <path
       style="fill:#000000;stroke:#e6e6e6;stroke-width:0;stroke-miterlimit:4;stroke-dasharray:none"
       d="m 121.7467,67.292052 c 0.86736,3.176006 0.15881,6.871203 0.38694,10.257234 -0.176,2.816073 0.3693,5.818765 -0.30223,8.506636 -2.26643,1.209054 -4.90827,0.172374 -7.32488,0.480115 -29.222339,-0.32577 -58.455212,-0.262165 -87.661717,-1.81538 -2.012453,-0.974565 -0.80221,-4.689576 -1.131049,-6.937799 0.162712,-2.869218 -0.351137,-5.913456 0.302208,-8.655711 2.363973,-1.230911 5.093038,-0.580582 7.610572,-0.938455 6.364448,-0.151515 12.78011,-0.426386 19.114801,-0.152771 1.289929,2.8772 1.317853,-1.754716 3.430343,-0.648301 21.594128,-0.56253 43.1927,-0.530147 64.789672,-0.516466 0.26178,0.140296 0.52356,0.280613 0.78534,0.420905 z"
       id="path3408"
       inkscape:connector-curvature="0" />
    <path
       style="fill:#000000;stroke:#e6e6e6;stroke-width:0;stroke-miterlimit:4;stroke-dasharray:none"
       d="m 29.31529,73.187033 c 14.916005,0.481023 29.846805,0.458455 44.771795,0.584136 1.046898,0.330604 0.427143,1.71302 0.597752,2.534349 0.0304,15.245063 0.04502,30.492762 0.562066,45.727972 -0.298114,1.07777 -1.713731,0.44527 -2.53552,0.61443 -13.241145,-0.0381 -26.483785,0.0835 -39.723965,-0.0804 -2.430622,0.0258 -5.113178,-0.88401 -6.297962,-3.16496 -1.246156,-2.24755 -0.812684,-4.93026 -0.97394,-7.39068 -0.07531,-12.776456 -0.01937,-25.553365 -0.03678,-38.33 0.330656,-1.070355 1.727802,-0.389758 2.554826,-0.531301 0.36055,0.01209 0.721111,0.02422 1.081661,0.03631 z"
       id="path3410"
       inkscape:connector-curvature="0" />
    <path
       style="fill:#000000;stroke:#e6e6e6;stroke-width:0;stroke-miterlimit:4;stroke-dasharray:none"
       d="m 77.217634,71.071993 c 0.404199,1.032696 0.07434,2.23908 0.180651,3.342055 -0.07794,0.912749 0.16626,1.885344 -0.1411,2.755471 -1.103884,0.414337 -2.378633,0.170839 -3.552341,0.289802 -0.853546,-0.09501 -1.920505,0.308377 -2.613658,-0.216492 -0.288933,-1.22318 -0.04109,-2.576143 -0.12367,-3.849088 0.159734,-0.793012 -0.407887,-2.045719 0.491447,-2.459908 1.836547,0.02679 3.69824,-0.06727 5.519718,0.04621 l 0.127695,0.04913 0.111258,0.04282 z"
       id="path3412"
       inkscape:connector-curvature="0" />
    <path
       style="fill:#000000;stroke:#e6e6e6;stroke-width:0;stroke-miterlimit:4;stroke-dasharray:none"
       d="m 77.257185,77.776413 c 0.405551,1.057928 0.06019,2.291183 0.164441,3.419242 -0.113076,13.095304 -0.01478,26.197385 -0.507121,39.285835 -0.162536,0.71907 0.2856,2.09922 -0.774635,2.16921 -1.470786,-0.0642 -2.98939,0.12898 -4.429885,-0.0983 -0.597495,-0.6077 -0.192977,-1.68379 -0.351098,-2.48476 -0.432333,-13.89571 -0.458934,-27.799306 -0.570419,-41.700113 0.298493,-0.943387 1.561941,-0.469926 2.32335,-0.659271 1.369767,0.0016 2.817845,-0.243415 4.145367,0.06815 z"
       id="path3414"
       inkscape:connector-curvature="0" />
    <path
       style="fill:#000000;stroke:#e6e6e6;stroke-width:0;stroke-miterlimit:4;stroke-dasharray:none"
       d="m 117.92359,70.66735 c 1.42815,0.08205 2.90066,-0.131612 4.30158,0.205246 0.89467,0.589657 0.28374,1.892714 0.4595,2.7991 -0.074,13.44099 0.0286,26.883984 -0.17662,40.323664 0.0234,2.08824 -0.27168,4.2831 -1.61926,5.96328 -1.31442,1.75341 -3.51625,2.76699 -5.70794,2.57369 -14.67991,0.18121 -29.36198,0.0754 -44.042787,0.11841 -1.123957,-0.34053 -0.397058,-1.79979 -0.523964,-2.65242 0.56458,-15.59719 0.44347,-31.254969 0.580733,-46.879057 -0.05682,-0.826849 -0.142064,-2.265003 1.103127,-1.993872 15.209166,-0.04939 30.415601,-0.491197 45.625631,-0.457991 z"
       id="path3416"
       inkscape:connector-curvature="0" />
    <path
       style="fill:#000000;stroke:#e6e6e6;stroke-width:0;stroke-miterlimit:4;stroke-dasharray:none"
       d="m 79.705335,71.013201 c 14.134864,0.232794 28.290445,0.406501 42.434685,0.396579 0.96649,0.298309 0.39268,1.572233 0.5473,2.326023 -0.079,1.028445 0.16988,2.117749 -0.14083,3.103145 -1.05794,0.405525 -2.29118,0.05985 -3.41925,0.163953 -13.63651,-0.09421 -27.269433,0.351749 -40.9056,0.358761 -0.969842,-0.294531 -0.394945,-1.572245 -0.549704,-2.326023 0.08524,-1.289978 -0.178616,-2.644808 0.1411,-3.891225 0.55301,-0.362488 1.269877,-0.07411 1.892299,-0.131213 z"
       id="path3418"
       inkscape:connector-curvature="0" />
  </g>
  <g
     inkscape:groupmode="layer"
     id="layer6"
     inkscape:label="Shading"
     style="display:inline">
    <path
       style="fill:#1a1a1a;fill-rule:evenodd;stroke:#1a1a1a;stroke-width:1.09459901px;stroke-linecap:butt;stroke-linejoin:miter;stroke-opacity:1"
       d="m 47.460415,105.2769 8.984938,16.20006 -25.272572,4.6e-4 c -1.889792,-0.64191 -4.033772,-0.37599 -4.706776,-5.36353 l 0,-68.921263 L 37.055156,76.36087 47.492609,47.414521 77.718416,37.7062 47.87938,27.888742 47.360752,25.749768 c 0,0 67.280818,0.325242 68.971828,0.716429 3.04571,1.232332 4.82428,2.760761 4.70677,6.958592 l 0,33.788646 L 78.568919,47.153684 57.771538,105.2769 Z"
       id="path3682"
       inkscape:connector-curvature="0"
       sodipodi:nodetypes="cccccccccccccccc" />
    <path
       style="display:inline;fill:#333333;fill-rule:evenodd;stroke:#333333;stroke-width:1.09459901px;stroke-linecap:butt;stroke-linejoin:miter;stroke-opacity:1"
       d="m 46.672303,104.53476 7.100664,15.87168 -22.139622,-4.4e-4 c -1.889793,-0.6419 -4.033773,-0.37598 -4.706777,-5.36353 L 26.598189,47.975994 37.055156,76.992454 47.643195,47.635104 78.383932,37.7062 48.091289,27.749628 47.62753,25.985931 c 0,0 64.98301,0.851584 66.67402,1.242768 3.04571,1.232331 4.92717,3.376793 4.80967,7.574624 l 0.0668,28.240656 L 77.928031,45.812365 56.983426,104.53476 Z"
       id="path3682-1"
       inkscape:connector-curvature="0"
       sodipodi:nodetypes="cccccccccccccccc" />
    <path
       style="display:inline;fill:#4d4d4d;fill-rule:evenodd;stroke:#4d4d4d;stroke-width:1.09459901px;stroke-linecap:butt;stroke-linejoin:miter;stroke-opacity:1"
       d="m 45.855732,103.88456 5.375577,15.54221 -19.112805,0 c -1.889793,-0.6419 -4.033762,-0.37598 -4.706754,-5.36353 L 26.754979,48.785732 37.055156,77.655781 47.864504,47.84083 78.88088,37.7062 48.286518,27.562179 47.912059,26.204956 c 0,0 62.895671,1.662379 64.586691,2.053563 3.04571,1.232332 4.92717,3.376795 4.80967,7.574626 l 0.0668,22.909059 L 77.438198,44.721486 56.166871,103.88456 Z"
       id="path3682-1-2"
       inkscape:connector-curvature="0"
       sodipodi:nodetypes="cccccccccccccccc" />
    <path
       style="display:inline;fill:#666666;fill-rule:evenodd;stroke:#666666;stroke-width:1.09459901px;stroke-linecap:butt;stroke-linejoin:miter;stroke-opacity:1"
       d="m 45.121256,103.12819 4.062057,15.43276 -16.376307,0 c -1.889792,-0.64191 -4.033761,-0.37599 -4.706754,-5.36354 L 26.947497,49.781269 37.055156,78.322392 48.163147,48.081904 79.459923,37.7062 48.509383,27.375739 48.227523,26.428306 c 0,0 60.531127,2.215297 62.222137,2.606481 3.04571,1.232332 4.92717,3.376794 4.80966,7.574625 l 0.0668,18.051579 L 77.032102,44.074577 55.432395,103.12819 Z"
       id="path3682-1-2-6"
       inkscape:connector-curvature="0"
       sodipodi:nodetypes="cccccccccccccccc" />
    <path
       style="display:inline;fill:#808080;fill-rule:evenodd;stroke:#808080;stroke-width:1.09459901px;stroke-linecap:butt;stroke-linejoin:miter;stroke-opacity:1"
       d="m 44.589281,102.51193 2.748538,15.21384 -13.858728,-0.32838 c -1.889793,-0.64191 -4.033762,-0.37598 -4.706755,-5.36354 L 27.071318,50.587441 37.055156,78.253432 48.104801,48.047646 79.365295,37.7062 48.743285,27.196955 48.570338,26.577412 c 0,0 58.561182,2.763451 60.252192,3.154634 3.04572,1.232332 4.92718,3.376795 4.80967,7.574626 L 113.5895,51.307688 76.609566,43.458318 54.9004,102.51193 Z"
       id="path3682-1-2-6-4"
       inkscape:connector-curvature="0"
       sodipodi:nodetypes="cccccccccccccccc" />
  </g>
  <g
     inkscape:groupmode="layer"
     id="layer3"
     inkscape:label="Extra"
     style="display:inline">
    <path
       style="fill:#ffffff;fill-rule:evenodd;stroke:#ffffff;stroke-width:1.14477789px;stroke-linecap:butt;stroke-linejoin:miter;stroke-opacity:1"
       d="M 45.313344,22.506787 46.740835,28.969915 73.340019,37.7062 46.456964,46.323892 37.055156,72.291303 27.576826,46.416954 23.00427,45.426761 22.801889,28.064336 c -0.05911,-5.072971 0.06567,-5.217233 5.969932,-5.109845 z"
       id="path3393"
       inkscape:connector-curvature="0"
       sodipodi:nodetypes="cccccccssc" />
  </g>
  <g
     inkscape:groupmode="layer"
     id="layer1"
     inkscape:label="Shine"
     style="display:inline">
    <path
       style="fill:none;fill-rule:evenodd;stroke:#000000;stroke-width:1.7664957px;stroke-linecap:butt;stroke-linejoin:miter;stroke-opacity:1"
       d="M 36.985233,8.4694227 44.934467,30.550619 67.015672,37.616107 44.934467,44.682586 36.985102,66.763783 29.036004,44.682586 6.9548318,37.616603 29.036004,30.550619 Z"
       id="path3360"
       inkscape:connector-curvature="0"
       sodipodi:nodetypes="ccccccccc" />
    <path
       style="fill:#000000;stroke:#ffffff;stroke-width:0;stroke-miterlimit:4;stroke-dasharray:none"
       d="m 37.363056,10.993178 c 0.564189,0.705636 0.663393,1.695668 1.043055,2.513493 2.076224,5.747661 4.130666,11.503223 6.231304,17.242015 6.431813,2.246341 12.977597,4.152891 19.426906,6.353797 0.610509,0.399395 0.127085,1.169475 -0.47741,1.196826 -6.291848,2.086757 -12.637871,4.008351 -18.913583,6.143779 -2.395807,6.348214 -4.558089,12.782356 -6.996669,19.115174 -0.110325,0.535305 -0.792917,1.016135 -1.228393,0.50147 -0.969015,-2.418468 -1.778208,-4.915555 -2.691728,-7.36198 C 32.28393,52.624002 30.816227,48.550739 29.326926,44.483391 22.945184,42.235486 16.415013,40.367511 10.018735,38.129195 9.3970137,37.825723 9.7651493,36.962983 10.373188,36.9382 c 6.294065,-2.085485 12.655809,-4.028753 18.926001,-6.145618 2.411117,-6.362802 4.568177,-12.827841 7.028968,-19.175716 0.137569,-0.447793 0.520821,-0.897544 1.034899,-0.623688 z"
       id="path3424"
       inkscape:connector-curvature="0" />
    <path
       style="display:inline;fill:#1a1a1a;fill-rule:evenodd;stroke:#1a1a1a;stroke-width:1.50081968px;stroke-linecap:butt;stroke-linejoin:miter;stroke-opacity:1"
       d="M 36.93741,12.705062 43.691106,31.46531 62.45136,37.468166 43.691106,43.471867 36.937312,62.232114 30.183723,43.471867 11.423489,37.468588 30.183723,31.46531 Z"
       id="path3360-0"
       inkscape:connector-curvature="0"
       sodipodi:nodetypes="ccccccccc" />
    <path
       style="display:inline;fill:#333333;fill-rule:evenodd;stroke:#333333;stroke-width:1.29292047px;stroke-linecap:butt;stroke-linejoin:miter;stroke-opacity:1"
       d="M 36.926059,16.083678 42.744214,32.245185 58.905728,37.416504 42.744214,42.588549 36.925983,58.750055 31.107926,42.588549 14.946433,37.416867 31.107926,32.245185 Z"
       id="path3360-0-2"
       inkscape:connector-curvature="0"
       sodipodi:nodetypes="ccccccccc" />
    <path
       style="display:inline;fill:#4d4d4d;fill-rule:evenodd;stroke:#4d4d4d;stroke-width:1.11126041px;stroke-linecap:butt;stroke-linejoin:miter;stroke-opacity:1"
       d="M 36.901879,18.999934 41.902555,32.890689 55.793319,37.33542 41.902555,41.780773 36.901803,55.671527 31.901204,41.780773 18.010457,37.335731 31.901204,32.890689 Z"
       id="path3360-0-2-7"
       inkscape:connector-curvature="0"
       sodipodi:nodetypes="ccccccccc" />
    <path
       style="display:inline;fill:#666666;fill-rule:evenodd;stroke:#666666;stroke-width:0.94123858px;stroke-linecap:butt;stroke-linejoin:miter;stroke-opacity:1"
       d="M 36.928971,21.761546 41.164543,33.527029 52.93004,37.291721 41.164543,41.056938 36.928905,52.82242 32.693398,41.056938 20.927936,37.291984 32.693398,33.527029 Z"
       id="path3360-0-2-7-5"
       inkscape:connector-curvature="0"
       sodipodi:nodetypes="ccccccccc" />
    <path
       style="display:inline;fill:#808080;fill-rule:evenodd;stroke:#808080;stroke-width:0.78450412px;stroke-linecap:butt;stroke-linejoin:miter;stroke-opacity:1"
       d="m 36.924341,24.416496 3.530268,9.806302 9.806319,3.137797 -9.806319,3.138235 -3.530323,9.806302 -3.530202,-9.806302 -9.806294,-3.138016 9.806294,-3.138016 z"
       id="path3360-0-2-7-5-3"
       inkscape:connector-curvature="0"
       sodipodi:nodetypes="ccccccccc" />
  </g>
  <g
     inkscape:groupmode="layer"
     id="layer5"
     inkscape:label="Letter"
     style="display:inline;opacity:1">
    <flowRoot
       xml:space="preserve"
       id="flowRoot3435"
       style="font-style:normal;font-variant:normal;font-weight:normal;font-stretch:normal;font-size:70px;line-height:125%;font-family:Terminal;-inkscape-font-specification:Terminal;letter-spacing:0px;word-spacing:0px;fill:#ffffff;fill-opacity:1;stroke:#ffffff;stroke-width:1px;stroke-linecap:butt;stroke-linejoin:miter;stroke-opacity:1"
       transform="matrix(-1.1366746,0,0,1.1366746,158.88522,-21.655189)"><flowRegion
         id="flowRegion3437"><rect
           id="rect3439"
           width="86.620583"
           height="84.145714"
           x="51.618793"
           y="38.99464"
           style="font-style:normal;font-variant:normal;font-weight:normal;font-stretch:normal;font-size:70px;font-family:Terminal;-inkscape-font-specification:Terminal;fill:#ffffff;stroke:#ffffff" /></flowRegion><flowPara
         id="flowPara3441">A</flowPara></flowRoot>  </g>
</svg>
