<?xml version="1.0" encoding="UTF-8" standalone="no"?>
<!-- Created with Inkscape (http://www.inkscape.org/) -->

<svg
   xmlns:dc="http://purl.org/dc/elements/1.1/"
   xmlns:cc="http://creativecommons.org/ns#"
   xmlns:rdf="http://www.w3.org/1999/02/22-rdf-syntax-ns#"
   xmlns:svg="http://www.w3.org/2000/svg"
   xmlns="http://www.w3.org/2000/svg"
   xmlns:sodipodi="http://sodipodi.sourceforge.net/DTD/sodipodi-0.dtd"
   xmlns:inkscape="http://www.inkscape.org/namespaces/inkscape"
   width="144"
   height="144"
   viewBox="0 0 144 144"
   id="svg2"
   version="1.1"
   inkscape:version="0.91 r13725"
   sodipodi:docname="Settings.svg">
  <defs
     id="defs4" />
  <sodipodi:namedview
     id="base"
     pagecolor="#ffffff"
     bordercolor="#666666"
     borderopacity="1.0"
     inkscape:pageopacity="0.0"
     inkscape:pageshadow="2"
     inkscape:zoom="4"
     inkscape:cx="54.322107"
     inkscape:cy="64.844237"
     inkscape:document-units="px"
     inkscape:current-layer="layer1"
     showgrid="false"
     units="px"
     inkscape:window-width="1600"
     inkscape:window-height="838"
     inkscape:window-x="-8"
     inkscape:window-y="-8"
     inkscape:window-maximized="1" />
  <metadata
     id="metadata7">
    <rdf:RDF>
      <cc:Work
         rdf:about="">
        <dc:format>image/svg+xml</dc:format>
        <dc:type
           rdf:resource="http://purl.org/dc/dcmitype/StillImage" />
        <dc:title></dc:title>
      </cc:Work>
    </rdf:RDF>
  </metadata>
  <g
     inkscape:label="Layer 1"
     inkscape:groupmode="layer"
     id="layer1"
     transform="translate(0,-908.36216)">
    <circle
       style="fill:#000000;stroke:#808080;stroke-width:0;stroke-miterlimit:4;stroke-dasharray:none"
       id="path3336"
       cx="49.87204"
       cy="994.28754"
       r="35.166771" />
    <circle
       style="fill:#ffffff;stroke:#808080;stroke-width:0;stroke-miterlimit:4;stroke-dasharray:none"
       id="path3338"
       cx="50.286343"
       cy="993.98737"
       r="15.119191" />
    <path
       style="fill:#000000;fill-rule:evenodd;stroke:#000000;stroke-width:1.47614968px;stroke-linecap:butt;stroke-linejoin:miter;stroke-opacity:1"
       d="m 38.129681,965.86636 c 0.0015,10e-5 -6.474142,-7.4245 -6.709771,-12.48763 3.380369,-3.26156 11.54728,-4.96972 17.674362,-5.05494 6.038939,-0.084 13.080624,1.0792 17.551934,4.49579 -0.478706,4.99356 -7.841891,13.28391 -7.455299,13.23315 z"
       id="path3357"
       inkscape:connector-curvature="0"
       sodipodi:nodetypes="ccaccc" />
    <path
       style="fill:#000000;fill-rule:evenodd;stroke:#000000;stroke-width:1.47614968px;stroke-linecap:butt;stroke-linejoin:miter;stroke-opacity:1"
       d="m 68.891881,971.40949 c 6.01e-4,10e-4 3.240913,-9.30233 7.522011,-12.01584 4.50801,1.32008 10.03849,7.56746 13.148532,12.84725 3.0653,5.20382 5.544156,11.89671 4.792081,17.47335 -4.574633,2.05858 -15.424221,-0.22915 -15.188546,0.0812 z"
       id="path3357-5"
       inkscape:connector-curvature="0"
       sodipodi:nodetypes="ccaccc" />
    <path
       style="fill:#000000;fill-rule:evenodd;stroke:#000000;stroke-width:1.47614968px;stroke-linecap:butt;stroke-linejoin:miter;stroke-opacity:1"
       d="m 29.215732,972.13729 c -6.02e-4,10e-4 -3.240914,-9.30233 -7.522012,-12.01583 -4.508009,1.32006 -10.038491,7.56745 -13.148531,12.84723 -3.0653017,5.20384 -5.54416,11.89674 -4.7920811,17.47336 4.5746346,2.05859 15.4242221,-0.22914 15.1885451,0.0812 z"
       id="path3357-5-1"
       inkscape:connector-curvature="0"
       sodipodi:nodetypes="ccaccc" />
    <path
       style="fill:#000000;fill-rule:evenodd;stroke:#000000;stroke-width:1.47614968px;stroke-linecap:butt;stroke-linejoin:miter;stroke-opacity:1"
       d="m 29.484879,1016.8054 c -6.02e-4,0 -3.240912,9.3024 -7.52201,12.0158 -4.508011,-1.32 -10.038492,-7.5676 -13.148533,-12.8473 -3.0653013,-5.2039 -5.5441575,-11.8967 -4.7920786,-17.47338 4.5746336,-2.05858 15.4242176,0.22915 15.1885446,-0.0812 z"
       id="path3357-5-1-6"
       inkscape:connector-curvature="0"
       sodipodi:nodetypes="ccaccc" />
    <path
       style="fill:#000000;fill-rule:evenodd;stroke:#000000;stroke-width:1.47614968px;stroke-linecap:butt;stroke-linejoin:miter;stroke-opacity:1"
       d="m 69.733424,1015.7509 c 6.01e-4,0 3.240913,9.3024 7.522009,12.0158 4.508012,-1.3199 10.038497,-7.5674 13.148539,-12.8472 3.065299,-5.2038 5.544156,-11.8965 4.792071,-17.47333 -4.574634,-2.05869 -15.424216,0.22904 -15.188543,-0.0812 z"
       id="path3357-5-4"
       inkscape:connector-curvature="0"
       sodipodi:nodetypes="ccaccc" />
    <path
       style="fill:#000000;fill-rule:evenodd;stroke:#000000;stroke-width:1.47614968px;stroke-linecap:butt;stroke-linejoin:miter;stroke-opacity:1"
       d="m 39.615027,1021.5727 c 0.0015,0 -6.474142,7.4246 -6.70977,12.4876 3.38037,3.2616 11.547281,4.9698 17.674361,5.0548 6.038941,0.084 13.080626,-1.0791 17.551937,-4.4956 -0.478707,-4.9935 -7.841892,-13.2838 -7.455302,-13.2331 z"
       id="path3357-3"
       inkscape:connector-curvature="0"
       sodipodi:nodetypes="ccaccc" />
    <path
       style="fill:#1a1a1a;fill-rule:evenodd;stroke:#1a1a1a;stroke-width:1.40032029px;stroke-linecap:butt;stroke-linejoin:miter;stroke-opacity:1"
       d="m 37.860883,965.32249 c 0,0 -6.141566,-7.04311 -6.36509,-11.84616 3.206721,-3.09402 10.954099,-4.71442 16.766433,-4.79527 5.728723,-0.0796 12.408677,1.02377 16.6503,4.26485 -0.454116,4.73705 -7.072326,12.55337 -7.072326,12.55337 z"
       id="path3357-6"
       inkscape:connector-curvature="0"
       sodipodi:nodetypes="ccaccc" />
    <path
       style="fill:#1a1a1a;fill-rule:evenodd;stroke:#1a1a1a;stroke-width:1.37609971px;stroke-linecap:butt;stroke-linejoin:miter;stroke-opacity:1"
       d="m 26.611334,1015.5713 c 0,0 -1.857502,8.672 -5.848436,11.2015 -4.20247,-1.2305 -9.358108,-7.0546 -12.257356,-11.9765 -2.8575439,-4.8511 -5.16839,-11.0903 -4.4672847,-16.28908 4.2645753,-1.91905 14.1591007,-0.0761 14.1591007,-0.0761 z"
       id="path3357-5-1-6-1"
       inkscape:connector-curvature="0"
       sodipodi:nodetypes="ccaccc" />
    <path
       style="fill:#1a1a1a;fill-rule:evenodd;stroke:#1a1a1a;stroke-width:1.40544164px;stroke-linecap:butt;stroke-linejoin:miter;stroke-opacity:1"
       d="m 28.843262,971.60848 c 0,0 -3.085672,-8.85673 -7.161704,-11.44026 -4.292075,1.25681 -9.557645,7.20498 -12.518714,12.23185 -2.918471,4.95457 -5.2785919,11.32686 -4.5625367,16.63631 4.3555077,1.96003 14.4610097,0.0782 14.4610097,0.0782 z"
       id="path3357-5-1-7"
       inkscape:connector-curvature="0"
       sodipodi:nodetypes="ccaccc" />
    <path
       style="fill:#1a1a1a;fill-rule:evenodd;stroke:#1a1a1a;stroke-width:1.34518027px;stroke-linecap:butt;stroke-linejoin:miter;stroke-opacity:1"
       d="m 69.549763,970.34766 c 0,0 2.953369,-8.47699 6.854632,-10.94973 4.108043,1.20293 9.147837,6.89603 11.981947,11.70737 2.793338,4.74213 5.052263,10.8412 4.366909,15.92303 -4.168752,1.87591 -13.840964,0.0741 -13.840964,0.0741 z"
       id="path3357-5-43"
       inkscape:connector-curvature="0"
       sodipodi:nodetypes="ccaccc" />
    <path
       style="fill:#1a1a1a;fill-rule:evenodd;stroke:#1a1a1a;stroke-width:1.47614968px;stroke-linecap:butt;stroke-linejoin:miter;stroke-opacity:1"
       d="m 26.772705,1014.1707 c 0,0 2.545006,-17.01232 6.178068,-24.6726 1.676301,-3.53439 3.886033,-7.05831 7.01171,-9.41047 2.861652,-2.15341 6.477943,-3.6346 10.05627,-3.78259 5.320998,-0.22006 10.294519,1.96288 14.780204,3.74169 2.020317,0.80117 12.167813,6.22416 13.134666,6.62784 0,0 1.193856,-7.66334 -0.23706,-11.01534 -2.100514,-4.92059 -6.769632,-8.85916 -11.499801,-11.3591 -8.951231,-4.7308 -16.279385,-2.94536 -16.639301,-2.94112 -0.369015,0.004 -11.952113,0.45237 -17.245943,3.65024 -4.823745,2.91391 -9.922946,9.21752 -12.576214,14.1894 -2.487139,4.6606 -3.499036,7.94981 -4.013281,15.47656 -0.733374,10.06939 11.050685,19.49549 11.050682,19.49549 z"
       id="path3599"
       inkscape:connector-curvature="0"
       sodipodi:nodetypes="caasscssssscc" />
    <path
       style="fill:#333333;fill-rule:evenodd;stroke:#333333;stroke-width:1.31815386px;stroke-linecap:butt;stroke-linejoin:miter;stroke-opacity:1"
       d="m 37.530971,964.66088 c 0,0 -5.781199,-6.62985 -5.991606,-11.15106 3.018558,-2.91248 10.311345,-4.43781 15.782631,-4.51391 5.392578,-0.0748 11.680574,0.96371 15.673311,4.01463 -0.42747,4.45907 -6.657341,11.81675 -6.657341,11.81675 z"
       id="path3357-6-4"
       inkscape:connector-curvature="0"
       sodipodi:nodetypes="ccaccc" />
    <path
       style="fill:#333333;fill-rule:evenodd;stroke:#333333;stroke-width:1.32516897px;stroke-linecap:butt;stroke-linejoin:miter;stroke-opacity:1"
       d="m 28.436884,970.98571 c 0,0 -2.909433,-8.35088 -6.752658,-10.78683 -4.046933,1.18502 -9.011757,6.79343 -11.803701,11.5332 -2.7517823,4.67159 -4.9771035,10.6799 -4.3019472,15.68612 4.1067412,1.84812 13.6350602,0.073 13.6350602,0.073 z"
       id="path3357-5-1-7-0"
       inkscape:connector-curvature="0"
       sodipodi:nodetypes="ccaccc" />
    <path
       style="fill:#333333;fill-rule:evenodd;stroke:#333333;stroke-width:1.29047012px;stroke-linecap:butt;stroke-linejoin:miter;stroke-opacity:1"
       d="m 25.234871,1014.5108 c 0,0 -1.741917,8.1322 -5.48451,10.5044 -3.940968,-1.154 -8.775788,-6.6156 -11.4946264,-11.2312 -2.6797292,-4.5495 -4.8467807,-10.4004 -4.1893018,-15.27546 3.9992058,-1.79971 13.2780322,-0.0711 13.2780322,-0.0711 z"
       id="path3357-5-1-6-1-5"
       inkscape:connector-curvature="0"
       sodipodi:nodetypes="ccaccc" />
    <path
       style="fill:#333333;fill-rule:evenodd;stroke:#333333;stroke-width:1.25294316px;stroke-linecap:butt;stroke-linejoin:miter;stroke-opacity:1"
       d="m 70.014628,969.60126 c 0,0 2.750859,-7.89574 6.384618,-10.19894 3.826362,1.12046 8.520587,6.4232 11.160364,10.90463 2.601799,4.41697 4.705835,10.09779 4.067478,14.83124 -3.882909,1.74725 -12.891911,0.069 -12.891911,0.069 z"
       id="path3357-5-43-7"
       inkscape:connector-curvature="0"
       sodipodi:nodetypes="ccaccc" />
    <path
       style="fill:#333333;fill-rule:evenodd;stroke:#333333;stroke-width:1.35736096px;stroke-linecap:butt;stroke-linejoin:miter;stroke-opacity:1"
       d="m 25.46184,1013.0956 c 0,0 2.80782,-17.57801 6.736374,-25.41092 1.748889,-3.48698 4.074705,-6.93522 7.273164,-9.16847 3.041525,-2.12373 7.277222,-3.35335 10.567593,-3.48942 4.892808,-0.20236 9.97433,1.72916 14.099043,3.36484 1.857737,0.73669 12.610393,5.97715 13.499441,6.34826 0,0 -0.0611,-6.76339 -1.376875,-9.84565 -1.931479,-4.52461 -6.248242,-8.16202 -10.655936,-10.34717 -7.932807,-3.93275 -17.14815,-2.80618 -17.479112,-2.80228 -0.339316,0.004 -11.001833,0.45057 -15.869657,3.39111 -4.43557,2.6794 -9.112898,8.44115 -11.55265,13.01294 -2.286995,4.28557 -4.414513,9.90685 -4.887377,16.82787 -0.176302,9.25909 9.645992,18.11889 9.645992,18.11889 z"
       id="path3599-5"
       inkscape:connector-curvature="0"
       sodipodi:nodetypes="caasscssssscc" />
    <path
       style="fill:#4d4d4d;fill-rule:evenodd;stroke:#4d4d4d;stroke-width:1.23663247px;stroke-linecap:butt;stroke-linejoin:miter;stroke-opacity:1"
       d="m 37.201922,964.00605 c 0,0 -5.423658,-6.21983 -5.621054,-10.46145 2.831876,-2.73234 9.673641,-4.16333 14.806552,-4.23473 5.059074,-0.0702 10.95819,0.9041 14.703994,3.76633 -0.401033,4.18332 -6.245619,11.08597 -6.245619,11.08597 z"
       id="path3357-6-4-9"
       inkscape:connector-curvature="0"
       sodipodi:nodetypes="ccaccc" />
    <path
       style="fill:#4d4d4d;fill-rule:evenodd;stroke:#4d4d4d;stroke-width:1.16901851px;stroke-linecap:butt;stroke-linejoin:miter;stroke-opacity:1"
       d="m 70.416412,968.96748 c 0,0 2.566603,-7.36689 5.956965,-9.51581 3.570065,1.04541 7.949859,5.99298 10.412818,10.17421 2.427529,4.12112 4.390634,9.42144 3.795028,13.83782 -3.62282,1.63025 -12.02838,0.065 -12.02838,0.065 z"
       id="path3357-5-43-7-1"
       inkscape:connector-curvature="0"
       sodipodi:nodetypes="ccaccc" />
    <path
       style="fill:#4d4d4d;fill-rule:evenodd;stroke:#4d4d4d;stroke-width:1.23686695px;stroke-linecap:butt;stroke-linejoin:miter;stroke-opacity:1"
       d="m 27.99061,970.28951 c 0,0 -2.715564,-7.7944 -6.302698,-10.06806 -3.777267,1.10608 -8.411262,6.34078 -11.017168,10.76472 -2.5684169,4.36029 -4.6454553,9.96818 -4.0152882,14.64084 3.8330882,1.72492 12.7264952,0.0681 12.7264952,0.0681 z"
       id="path3357-5-1-7-0-4"
       inkscape:connector-curvature="0"
       sodipodi:nodetypes="ccaccc" />
    <path
       style="fill:#4d4d4d;fill-rule:evenodd;stroke:#4d4d4d;stroke-width:1.20241117px;stroke-linecap:butt;stroke-linejoin:miter;stroke-opacity:1"
       d="m 23.846353,1013.4048 c 0,0 -1.623052,7.5774 -5.110258,9.7877 -3.672044,-1.0754 -8.176947,-6.1643 -10.7102571,-10.465 -2.4968717,-4.2388 -4.5160471,-9.6905 -3.9034348,-14.23296 3.7263097,-1.67692 12.3719669,-0.066 12.3719669,-0.066 z"
       id="path3357-5-1-6-1-5-6"
       inkscape:connector-curvature="0"
       sodipodi:nodetypes="ccaccc" />
    <path
       style="fill:#4d4d4d;fill-rule:evenodd;stroke:#4d4d4d;stroke-width:1.25437725px;stroke-linecap:butt;stroke-linejoin:miter;stroke-opacity:1"
       d="m 24.049292,1011.9946 c 0,0 3.053721,-18.17718 7.233062,-26.2246 1.824684,-3.51348 4.3018,-6.90511 7.549939,-9.16862 3.050792,-2.12601 7.500945,-3.42326 10.534173,-3.67104 4.751062,-0.38808 11.203397,2.03064 15.661657,3.79726 1.716962,0.68035 11.333828,5.8851 12.155426,6.22809 0,0 -1.878967,-5.86617 -3.021621,-8.74477 -1.636148,-4.1218 -5.050768,-7.42897 -9.847465,-9.56212 -8.154327,-3.6263 -17.022387,-2.62995 -17.306204,-2.58966 -0.310483,0.0442 -10.167118,0.41638 -14.665619,3.1338 -4.099039,2.47613 -8.410688,7.80651 -10.676144,12.02566 -2.118008,3.9445 -5.244886,10.4669 -5.609291,17.11676 -0.861325,8.69624 7.992089,17.65924 7.992087,17.65924 z"
       id="path3599-5-5"
       inkscape:connector-curvature="0"
       sodipodi:nodetypes="caasscssssscc" />
    <path
       style="fill:#666666;fill-rule:evenodd;stroke:#666666;stroke-width:1.15234113px;stroke-linecap:butt;stroke-linejoin:miter;stroke-opacity:1"
       d="m 27.563468,969.62912 c 0,0 -2.529989,-7.26177 -5.871982,-9.38004 -3.519133,1.03049 -7.836446,5.90744 -10.264266,10.02906 -2.392894,4.06233 -4.3279923,9.28708 -3.7408895,13.64039 3.5711415,1.607 11.8567805,0.064 11.8567805,0.064 z"
       id="path3357-5-1-7-0-4-6"
       inkscape:connector-curvature="0"
       sodipodi:nodetypes="ccaccc" />
    <path
       style="fill:#666666;fill-rule:evenodd;stroke:#666666;stroke-width:1.15156984px;stroke-linecap:butt;stroke-linejoin:miter;stroke-opacity:1"
       d="m 36.830287,963.2974 c 0,0 -5.050588,-5.79199 -5.234406,-9.74184 2.637082,-2.5444 9.00823,-3.87697 13.788074,-3.94345 4.711082,-0.0654 10.204422,0.84191 13.692571,3.50726 -0.373449,3.89556 -5.816012,10.32342 -5.816012,10.32342 z"
       id="path3357-6-4-9-2"
       inkscape:connector-curvature="0"
       sodipodi:nodetypes="ccaccc" />
    <path
       style="fill:#666666;fill-rule:evenodd;stroke:#666666;stroke-width:1.07317889px;stroke-linecap:butt;stroke-linejoin:miter;stroke-opacity:1"
       d="m 70.878086,968.23466 c 0,0 2.356184,-6.76293 5.468594,-8.73566 3.27738,0.9597 7.298107,5.50165 9.559141,9.3401 2.228521,3.78327 4.030682,8.64908 3.483907,12.70332 -3.325814,1.4967 -11.042261,0.0588 -11.042261,0.0588 z"
       id="path3357-5-43-7-1-2"
       inkscape:connector-curvature="0"
       sodipodi:nodetypes="ccaccc" />
    <path
       style="fill:#666666;fill-rule:evenodd;stroke:#666666;stroke-width:1.08699739px;stroke-linecap:butt;stroke-linejoin:miter;stroke-opacity:1"
       d="m 22.003079,1011.9489 c 0,0 -1.46726,6.8503 -4.619748,8.8481 -3.319581,-0.972 -7.39208,-5.5724 -9.6822303,-9.4604 -2.2572087,-3.832 -4.0825721,-8.7602 -3.5287622,-12.86671 3.3686398,-1.51599 11.1844405,-0.0588 11.1844405,-0.0588 z"
       id="path3357-5-1-6-1-5-6-3"
       inkscape:connector-curvature="0"
       sodipodi:nodetypes="ccaccc" />
    <path
       style="fill:#666666;fill-rule:evenodd;stroke:#666666;stroke-width:1.11271966px;stroke-linecap:butt;stroke-linejoin:miter;stroke-opacity:1"
       d="m 22.270312,1010.6873 c 0,0 3.520584,-18.9648 8.184259,-27.20747 2.064648,-3.64915 4.913879,-7.07017 8.458754,-9.30907 3.07885,-1.94455 7.766937,-2.93995 10.457619,-3.15973 4.214522,-0.34425 10.50813,1.37129 14.462919,2.93839 1.523063,0.60352 12.52523,6.82755 13.254044,7.13178 0,0 -1.942237,-5.43254 -3.353223,-7.78987 -2.713141,-4.53283 -6.285709,-6.51874 -9.353219,-8.02559 -5.755945,-2.8275 -18.504856,-3.24434 -18.276121,-2.75387 0.117575,0.25211 -9.736548,0.36935 -13.72703,2.7799 -3.636131,2.19649 -7.056885,6.57072 -9.47048,10.66758 -3.402452,5.77537 -6.359376,13.06748 -6.682631,18.96641 -0.764052,7.71414 6.045109,15.76154 6.045109,15.76154 z"
       id="path3599-5-5-1"
       inkscape:connector-curvature="0"
       sodipodi:nodetypes="caasscssssacc" />
    <path
       style="fill:#808080;fill-rule:evenodd;stroke:#808080;stroke-width:1.02817571px;stroke-linecap:butt;stroke-linejoin:miter;stroke-opacity:1"
       d="m 27.109577,969.11205 c 0,0 -2.436784,-6.96859 -5.418674,-8.85861 -3.139944,0.91946 -6.992065,5.2709 -9.158285,8.94843 -2.135061,3.6246 -3.86165,8.28635 -3.337809,12.17058 3.186348,1.43388 10.579207,0.0568 10.579207,0.0568 z"
       id="path3357-5-1-7-0-4-6-0"
       inkscape:connector-curvature="0"
       sodipodi:nodetypes="ccaccc" />
    <path
       style="fill:#808080;fill-rule:evenodd;stroke:#808080;stroke-width:1.02397585px;stroke-linecap:butt;stroke-linejoin:miter;stroke-opacity:1"
       d="m 36.83953,962.95824 c 0,0 -5.078119,-5.88417 -5.24157,-9.39637 2.344893,-2.26249 8.010119,-3.44741 12.260355,-3.50651 4.189093,-0.0581 9.073772,0.74861 12.175433,3.11865 -0.33207,3.46392 -5.171597,9.17958 -5.171597,9.17958 z"
       id="path3357-6-4-9-2-7"
       inkscape:connector-curvature="0"
       sodipodi:nodetypes="ccaccc" />
    <path
       style="fill:#808080;fill-rule:evenodd;stroke:#808080;stroke-width:0.92592508px;stroke-linecap:butt;stroke-linejoin:miter;stroke-opacity:1"
       d="m 70.961854,969.09474 c 0,0 2.64361,-7.86001 5.328956,-9.56206 2.827684,0.82802 6.296714,4.74675 8.247509,8.05854 1.92273,3.26413 3.477618,7.46229 3.005866,10.96026 -2.869471,1.29128 -9.527119,0.0511 -9.527119,0.0511 z"
       id="path3357-5-43-7-1-2-9"
       inkscape:connector-curvature="0"
       sodipodi:nodetypes="ccaccc" />
    <path
       style="fill:#808080;fill-rule:evenodd;stroke:#808080;stroke-width:0.95831162px;stroke-linecap:butt;stroke-linejoin:miter;stroke-opacity:1"
       d="m 19.91491,1010.3355 c 0,0 -1.293557,6.0392 -4.072832,7.8007 -2.926589,-0.857 -6.51696,-4.9129 -8.535987,-8.3405 -1.9899853,-3.3784 -3.5992521,-7.7232 -3.1110053,-11.34357 2.969839,-1.33648 11.3608103,0.24131 11.3608103,0.24131 z"
       id="path3357-5-1-6-1-5-6-3-5"
       inkscape:connector-curvature="0"
       sodipodi:nodetypes="ccaccc" />
    <path
       style="fill:#808080;fill-rule:evenodd;stroke:#808080;stroke-width:1.11271966px;stroke-linecap:butt;stroke-linejoin:miter;stroke-opacity:1"
       d="m 20.224453,1009.1576 c 0,0 2.87238,-17.62447 7.019148,-25.34969 2.425428,-4.51851 5.474179,-8.58785 10.088325,-11.61556 4.380801,-2.8746 10.621977,-3.83864 12.994751,-3.78973 5.918041,0.12193 11.267803,1.96964 14.702443,3.8637 2.517727,1.38841 12.952495,6.32894 12.701167,6.20328 0,0 -2.2747,-2.18254 -3.685686,-4.53985 -2.713139,-4.53283 -6.709751,-6.35565 -9.777259,-7.86251 -5.755945,-2.8275 -18.89628,-3.66839 -18.667545,-3.17791 0.117575,0.25212 -9.214652,0.27148 -13.205135,2.68204 -3.636131,2.1965 -6.83492,6.44163 -9.176911,10.43927 -3.388325,5.78364 -6.359376,13.06744 -6.68263,18.96646 -0.764053,7.7141 3.689332,14.1805 3.689332,14.1805 z"
       id="path3599-5-5-1-2"
       inkscape:connector-curvature="0"
       sodipodi:nodetypes="cassscssssacc" />
    <circle
       style="fill:#000000;stroke:#808080;stroke-width:0;stroke-miterlimit:4;stroke-dasharray:none"
       id="path3336-2"
       cx="-380.61661"
       cy="873.15625"
       r="21.245586"
       transform="matrix(0.86219367,-0.50657879,0.50657879,0.86219367,0,0)" />
    <circle
       style="fill:#ffffff;stroke:#808080;stroke-width:0;stroke-miterlimit:4;stroke-dasharray:none"
       id="path3338-9"
       cx="-380.36636"
       cy="872.97491"
       r="9.134079"
       transform="matrix(0.86219367,-0.50657879,0.50657879,0.86219367,0,0)" />
    <path
       style="fill:#000000;fill-rule:evenodd;stroke:#000000;stroke-width:0.89179814px;stroke-linecap:butt;stroke-linejoin:miter;stroke-opacity:1"
       d="m 99.34263,934.43173 c 8.1e-4,-4.2e-4 -5.64449,-1.88596 -7.316759,-4.45116 0.762598,-2.73343 4.493837,-6.12261 7.659249,-8.04216 3.11987,-1.89197 7.14379,-3.44108 10.51844,-3.02987 1.27888,2.74757 -0.0194,9.31934 0.16656,9.17459 z"
       id="path3357-9"
       inkscape:connector-curvature="0"
       sodipodi:nodetypes="ccaccc" />
    <path
       style="fill:#000000;fill-rule:evenodd;stroke:#000000;stroke-width:0.89179814px;stroke-linecap:butt;stroke-linejoin:miter;stroke-opacity:1"
       d="m 117.06261,927.90446 c 7.3e-4,5.3e-4 -1.15879,-5.83729 0.24074,-8.56089 2.75216,-0.69207 7.54485,0.86954 10.78068,2.66787 3.18926,1.77247 6.52877,4.50005 7.84371,7.63498 -1.75284,2.47235 -8.10437,4.6011 -7.88659,4.69074 z"
       id="path3357-5-2"
       inkscape:connector-curvature="0"
       sodipodi:nodetypes="ccaccc" />
    <path
       style="fill:#000000;fill-rule:evenodd;stroke:#000000;stroke-width:0.89179814px;stroke-linecap:butt;stroke-linejoin:miter;stroke-opacity:1"
       d="m 96.618679,940.42617 c 9.3e-5,9.4e-4 -4.535047,-3.85356 -7.595464,-3.95678 -1.944149,2.06725 -2.91291,7.01398 -2.917031,10.71596 -0.0041,3.64871 0.753019,7.89355 2.851455,10.56814 3.012896,-0.32774 7.964095,-4.83987 7.936372,-4.60598 z"
       id="path3357-5-1-0"
       inkscape:connector-curvature="0"
       sodipodi:nodetypes="ccaccc" />
    <path
       style="fill:#000000;fill-rule:evenodd;stroke:#000000;stroke-width:0.89179814px;stroke-linecap:butt;stroke-linejoin:miter;stroke-opacity:1"
       d="m 110.42925,963.6107 c -7.2e-4,-5.3e-4 1.15879,5.83735 -0.24072,8.56092 -2.75212,0.69208 -7.54488,-0.86957 -10.78068,-2.66785 -3.189268,-1.77255 -6.528782,-4.50009 -7.843736,-7.63507 1.752823,-2.47234 8.104366,-4.6011 7.886646,-4.69062 z"
       id="path3357-5-1-6-19"
       inkscape:connector-curvature="0"
       sodipodi:nodetypes="ccaccc" />
    <path
       style="fill:#000000;fill-rule:evenodd;stroke:#000000;stroke-width:0.89179814px;stroke-linecap:butt;stroke-linejoin:miter;stroke-opacity:1"
       d="m 131.07137,950.74366 c -8e-5,-8.9e-4 4.53507,3.85362 7.59548,3.95679 1.94417,-2.0672 2.9129,-7.01399 2.91706,-10.71593 0.004,-3.64875 -0.75301,-7.8935 -2.85151,-10.56821 -3.01291,0.32774 -7.96411,4.83986 -7.93636,4.60598 z"
       id="path3357-5-4-3"
       inkscape:connector-curvature="0"
       sodipodi:nodetypes="ccaccc" />
    <path
       style="fill:#000000;fill-rule:evenodd;stroke:#000000;stroke-width:0.89179814px;stroke-linecap:butt;stroke-linejoin:miter;stroke-opacity:1"
       d="m 117.16489,962.99367 c 7.9e-4,-4.5e-4 -1.10002,5.84873 0.32675,8.55813 2.75897,0.66426 7.53576,-0.94538 10.75331,-2.77612 3.17142,-1.80427 6.48322,-4.56539 7.76663,-7.71346 -1.77758,-2.45451 -8.15014,-4.51937 -7.93322,-4.61124 z"
       id="path3357-3-8"
       inkscape:connector-curvature="0"
       sodipodi:nodetypes="ccaccc" />
    <path
       style="fill:#1a1a1a;fill-rule:evenodd;stroke:#1a1a1a;stroke-width:0.84598666px;stroke-linecap:butt;stroke-linejoin:miter;stroke-opacity:1"
       d="m 99.03618,934.23069 c 0,0 -5.354531,-1.78908 -6.940908,-4.22248 0.723417,-2.59301 4.262995,-5.8081 7.265808,-7.62904 2.95961,-1.79474 6.77679,-3.26434 9.97809,-2.87424 1.21321,2.60642 0.15801,8.70329 0.15801,8.70329 z"
       id="path3357-6-0"
       inkscape:connector-curvature="0"
       sodipodi:nodetypes="ccaccc" />
    <path
       style="fill:#1a1a1a;fill-rule:evenodd;stroke:#1a1a1a;stroke-width:0.83135426px;stroke-linecap:butt;stroke-linejoin:miter;stroke-opacity:1"
       d="m 108.55481,963.84739 c 0,0 1.68645,5.08556 0.38179,7.62454 -2.56559,0.6452 -7.03351,-0.81072 -10.04997,-2.48705 -2.973121,-1.6524 -6.086288,-4.1951 -7.312154,-7.11761 1.634031,-2.30477 7.352154,-4.37264 7.352154,-4.37264 z"
       id="path3357-5-1-6-1-2"
       inkscape:connector-curvature="0"
       sodipodi:nodetypes="ccaccc" />
    <path
       style="fill:#1a1a1a;fill-rule:evenodd;stroke:#1a1a1a;stroke-width:0.84908086px;stroke-linecap:butt;stroke-linejoin:miter;stroke-opacity:1"
       d="m 96.262828,940.26474 c 0,0 -4.317816,-3.66899 -7.231637,-3.76727 -1.851012,1.96824 -2.773379,6.67802 -2.777306,10.20265 -0.0041,3.47394 0.716954,7.51543 2.714887,10.06195 2.868562,-0.31205 7.556214,-4.38537 7.556214,-4.38537 z"
       id="path3357-5-1-7-9"
       inkscape:connector-curvature="0"
       sodipodi:nodetypes="ccaccc" />
    <path
       style="fill:#1a1a1a;fill-rule:evenodd;stroke:#1a1a1a;stroke-width:0.81267464px;stroke-linecap:butt;stroke-linejoin:miter;stroke-opacity:1"
       d="m 117.08034,927.15003 c 0,0 -1.05597,-5.31939 0.21935,-7.80135 2.50797,-0.63067 6.87548,0.7924 9.8242,2.43118 2.90628,1.61522 5.94949,4.10078 7.14777,6.95761 -1.5973,2.25294 -7.18679,4.27461 -7.18679,4.27461 z"
       id="path3357-5-43-6"
       inkscape:connector-curvature="0"
       sodipodi:nodetypes="ccaccc" />
    <path
       style="fill:#1a1a1a;fill-rule:evenodd;stroke:#1a1a1a;stroke-width:0.89179814px;stroke-linecap:butt;stroke-linejoin:miter;stroke-opacity:1"
       d="m 108.21021,963.06839 c 0,0 -3.88085,-9.64034 -4.33283,-14.74231 -0.20855,-2.35406 -0.13601,-4.86588 0.77227,-7.04765 0.83154,-1.99747 2.2619,-3.87574 4.08051,-5.04797 2.70424,-1.74311 5.96298,-2.12812 8.84389,-2.57438 1.29756,-0.20101 8.2429,-0.4818 8.87003,-0.56745 0,0 -1.72345,-4.35708 -3.49462,-5.66517 -2.60003,-1.9202 -6.23747,-2.54283 -9.46643,-2.39735 -6.11038,0.2753 -9.38109,3.44801 -9.56724,3.56037 -0.19074,0.11544 -6.087227,3.89351 -7.866017,7.17937 -1.620839,2.99408 -2.347737,7.83811 -2.208173,11.23989 0.130824,3.1888 0.6104,5.21179 2.646032,9.28973 2.699678,5.46943 11.722588,6.77289 11.722588,6.77289 z"
       id="path3599-9"
       inkscape:connector-curvature="0"
       sodipodi:nodetypes="caasscssssscc" />
    <path
       style="fill:#333333;fill-rule:evenodd;stroke:#333333;stroke-width:0.79634696px;stroke-linecap:butt;stroke-linejoin:miter;stroke-opacity:1"
       d="m 98.66186,933.98705 c 0,0 -5.040356,-1.68409 -6.533639,-3.97474 0.68097,-2.44089 4.012852,-5.46731 6.839479,-7.18139 2.78602,-1.68931 6.37915,-3.07279 9.39262,-2.70558 1.142,2.4535 0.14873,8.1926 0.14873,8.1926 z"
       id="path3357-6-4-3"
       inkscape:connector-curvature="0"
       sodipodi:nodetypes="ccaccc" />
    <path
       style="fill:#333333;fill-rule:evenodd;stroke:#333333;stroke-width:0.80058509px;stroke-linecap:butt;stroke-linejoin:miter;stroke-opacity:1"
       d="m 95.860558,940.06471 c 0,0 -4.071201,-3.45944 -6.81858,-3.55208 -1.745314,1.85579 -2.615002,6.2966 -2.618705,9.61991 -0.0041,3.27552 0.676017,7.08619 2.559827,9.48724 2.704728,-0.2942 7.124628,-4.13486 7.124628,-4.13486 z"
       id="path3357-5-1-7-0-3"
       inkscape:connector-curvature="0"
       sodipodi:nodetypes="ccaccc" />
    <path
       style="fill:#333333;fill-rule:evenodd;stroke:#333333;stroke-width:0.7796222px;stroke-linecap:butt;stroke-linejoin:miter;stroke-opacity:1"
       d="m 107.51326,963.71622 c 0,0 1.58148,4.76903 0.35801,7.15009 -2.40598,0.60491 -6.59584,-0.76028 -9.424623,-2.33236 -2.788132,-1.54958 -5.707568,-3.93407 -6.857091,-6.67465 1.53234,-2.16133 6.894708,-4.10042 6.894708,-4.10042 z"
       id="path3357-5-1-6-1-5-2"
       inkscape:connector-curvature="0"
       sodipodi:nodetypes="ccaccc" />
    <path
       style="fill:#333333;fill-rule:evenodd;stroke:#333333;stroke-width:0.75695062px;stroke-linecap:butt;stroke-linejoin:miter;stroke-opacity:1"
       d="m 117.09404,926.61899 c 0,0 -0.98358,-4.95467 0.20433,-7.26646 2.33599,-0.5874 6.40402,0.73807 9.15055,2.2645 2.70702,1.50446 5.54156,3.81959 6.65767,6.48049 -1.4878,2.09851 -6.69401,3.98151 -6.69401,3.98151 z"
       id="path3357-5-43-7-9"
       inkscape:connector-curvature="0"
       sodipodi:nodetypes="ccaccc" />
    <path
       style="fill:#333333;fill-rule:evenodd;stroke:#333333;stroke-width:0.82003331px;stroke-linecap:butt;stroke-linejoin:miter;stroke-opacity:1"
       d="m 107.19837,962.90957 c 0,0 -3.91709,-10.01541 -4.26796,-15.29776 -0.1562,-2.35155 -3e-5,-4.85947 0.98248,-7.00162 0.93436,-2.03705 2.76435,-3.97385 4.4366,-5.05172 2.48661,-1.60294 5.72465,-2.15188 8.37373,-2.56222 1.19314,-0.18482 8.39786,-0.74594 8.97454,-0.82471 0,0 -2.10174,-3.50427 -3.73043,-4.70706 -2.39079,-1.76566 -5.75255,-2.33923 -8.71719,-2.12851 -5.33564,0.37928 -9.791,3.78641 -9.96219,3.88973 -0.17523,0.10637 -5.592789,3.60172 -7.228445,6.62316 -1.490399,2.75312 -2.163381,7.18581 -2.035042,10.31384 0.120292,2.9322 0.73248,6.51137 2.604284,10.26112 2.741873,4.87684 10.569623,6.48575 10.569623,6.48575 z"
       id="path3599-5-0"
       inkscape:connector-curvature="0"
       sodipodi:nodetypes="caasscssssscc" />
    <path
       style="fill:#4d4d4d;fill-rule:evenodd;stroke:#4d4d4d;stroke-width:0.74709684px;stroke-linecap:butt;stroke-linejoin:miter;stroke-opacity:1"
       d="m 98.290057,933.74666 c 0,0 -4.728639,-1.57996 -6.129586,-3.72892 0.638866,-2.28993 3.764677,-5.12919 6.416479,-6.73727 2.61367,-1.58494 5.98466,-2.88274 8.81174,-2.53824 1.07138,2.30177 0.13949,7.68594 0.13949,7.68594 z"
       id="path3357-6-4-9-3"
       inkscape:connector-curvature="0"
       sodipodi:nodetypes="ccaccc" />
    <path
       style="fill:#4d4d4d;fill-rule:evenodd;stroke:#4d4d4d;stroke-width:0.70624864px;stroke-linecap:butt;stroke-linejoin:miter;stroke-opacity:1"
       d="m 117.10938,926.16587 c 0,0 -0.91774,-4.62278 0.19062,-6.77971 2.17954,-0.54805 5.97505,0.68864 8.53761,2.11281 2.52571,1.4037 5.17038,3.56375 6.21175,6.04643 -1.38814,1.95795 -6.24575,3.7147 -6.24575,3.7147 z"
       id="path3357-5-43-7-1-5"
       inkscape:connector-curvature="0"
       sodipodi:nodetypes="ccaccc" />
    <path
       style="fill:#4d4d4d;fill-rule:evenodd;stroke:#4d4d4d;stroke-width:0.74723852px;stroke-linecap:butt;stroke-linejoin:miter;stroke-opacity:1"
       d="m 95.415038,939.83866 c 0,0 -3.79993,-3.22889 -6.364242,-3.3154 -1.629009,1.73216 -2.440743,5.87702 -2.444192,8.97891 -0.003,3.05725 0.63098,6.61399 2.389262,8.85507 2.524491,-0.27462 6.649883,-3.85935 6.649883,-3.85935 z"
       id="path3357-5-1-7-0-4-9"
       inkscape:connector-curvature="0"
       sodipodi:nodetypes="ccaccc" />
    <path
       style="fill:#4d4d4d;fill-rule:evenodd;stroke:#4d4d4d;stroke-width:0.72642231px;stroke-linecap:butt;stroke-linejoin:miter;stroke-opacity:1"
       d="m 106.45152,963.56509 c 0,0 1.4736,4.44364 0.33359,6.66211 -2.24181,0.56371 -6.14575,-0.70832 -8.781497,-2.17312 -2.597871,-1.44384 -5.318083,-3.66558 -6.389186,-6.21917 1.427778,-2.0139 6.424338,-3.82049 6.424338,-3.82049 z"
       id="path3357-5-1-6-1-5-6-6"
       inkscape:connector-curvature="0"
       sodipodi:nodetypes="ccaccc" />
    <path
       style="fill:#4d4d4d;fill-rule:evenodd;stroke:#4d4d4d;stroke-width:0.75781703px;stroke-linecap:butt;stroke-linejoin:miter;stroke-opacity:1"
       d="m 106.12566,962.76844 c 0,0 -3.9724,-10.40281 -4.25829,-15.87364 -0.12483,-2.38854 0.12747,-4.91333 1.12664,-7.08642 0.93844,-2.04109 2.85944,-4.07874 4.36356,-5.1361 2.35598,-1.65617 6.45713,-2.371 9.32004,-2.81523 1.10257,-0.17108 7.70475,-0.40315 8.23764,-0.47594 0,0 -2.77401,-2.48058 -4.25019,-3.63029 -2.11369,-1.64625 -4.90445,-2.32388 -8.05581,-1.96699 -5.35727,0.60669 -9.67157,3.83969 -9.80707,3.94753 -0.14821,0.11809 -5.168464,3.32846 -6.680013,6.12065 -1.377311,2.54426 -1.991862,6.64033 -1.880663,9.53133 0.103964,2.70285 0.471366,7.05722 2.316705,10.63257 2.212781,4.79336 9.567451,6.75253 9.567451,6.75253 z"
       id="path3599-5-5-5"
       inkscape:connector-curvature="0"
       sodipodi:nodetypes="caasscssssscc" />
    <path
       style="fill:#666666;fill-rule:evenodd;stroke:#666666;stroke-width:0.69617307px;stroke-linecap:butt;stroke-linejoin:miter;stroke-opacity:1"
       d="m 94.990433,939.62538 c 0,0 -3.540238,-3.00825 -5.929317,-3.08881 -1.517677,1.61377 -2.273943,5.47536 -2.277179,8.36528 -0.003,2.84831 0.587873,6.16202 2.225983,8.24992 2.351969,-0.25587 6.195525,-3.59547 6.195525,-3.59547 z"
       id="path3357-5-1-7-0-4-6-7"
       inkscape:connector-curvature="0"
       sodipodi:nodetypes="ccaccc" />
    <path
       style="fill:#666666;fill-rule:evenodd;stroke:#666666;stroke-width:0.69570726px;stroke-linecap:butt;stroke-linejoin:miter;stroke-opacity:1"
       d="m 97.879597,933.49125 c 0,0 -4.403381,-1.47126 -5.707953,-3.47242 0.594915,-2.13238 3.505736,-4.77636 5.975135,-6.27381 2.433971,-1.47578 5.572971,-2.68447 8.205621,-2.36366 0.99767,2.14342 0.12993,7.15725 0.12993,7.15725 z"
       id="path3357-6-4-9-2-6"
       inkscape:connector-curvature="0"
       sodipodi:nodetypes="ccaccc" />
    <path
       style="fill:#666666;fill-rule:evenodd;stroke:#666666;stroke-width:0.64834821px;stroke-linecap:butt;stroke-linejoin:miter;stroke-opacity:1"
       d="m 117.12557,925.64289 c 0,0 -0.84246,-4.2438 0.17501,-6.22392 2.00083,-0.50313 5.4852,0.63221 7.8377,1.93962 2.31861,1.28863 4.74649,3.27158 5.70245,5.55073 -1.27431,1.79742 -5.73354,3.41032 -5.73354,3.41032 z"
       id="path3357-5-43-7-1-2-8"
       inkscape:connector-curvature="0"
       sodipodi:nodetypes="ccaccc" />
    <path
       style="fill:#666666;fill-rule:evenodd;stroke:#666666;stroke-width:0.65669644px;stroke-linecap:butt;stroke-linejoin:miter;stroke-opacity:1"
       d="m 105.04583,963.37082 c 0,0 1.33219,4.01722 0.30157,6.02274 -2.0266,0.50962 -5.55586,-0.64039 -7.938631,-1.96465 -2.348489,-1.30518 -4.807568,-3.31359 -5.775872,-5.62215 1.290731,-1.82057 5.807613,-3.45383 5.807613,-3.45383 z"
       id="path3357-5-1-6-1-5-6-3-3"
       inkscape:connector-curvature="0"
       sodipodi:nodetypes="ccaccc" />
    <path
       style="fill:#666666;fill-rule:evenodd;stroke:#666666;stroke-width:0.67223626px;stroke-linecap:butt;stroke-linejoin:miter;stroke-opacity:1"
       d="m 104.79891,962.63186 c 0,0 -3.97023,-10.95588 -4.06363,-16.67667 -0.0413,-2.53262 0.39579,-5.18659 1.55704,-7.43768 1.00862,-1.95514 3.14594,-3.90838 4.4802,-4.84634 2.08995,-1.46915 5.89319,-2.50166 8.4328,-2.89573 0.97802,-0.15175 8.6137,-0.2769 9.08645,-0.34149 0,0 -2.6743,-2.23531 -4.1307,-3.03138 -2.80046,-1.53076 -5.26913,-1.4718 -7.32813,-1.3179 -3.86349,0.28876 -10.63176,3.97337 -10.36252,4.15884 0.13851,0.0951 -4.958601,3.17218 -6.299421,5.64908 -1.221776,2.25693 -1.664891,5.58229 -1.66828,8.45493 -0.0051,4.04961 0.686723,8.75292 2.323667,11.92448 1.962874,4.25201 7.972524,6.35986 7.972524,6.35986 z"
       id="path3599-5-5-1-8"
       inkscape:connector-curvature="0"
       sodipodi:nodetypes="caasscssssacc" />
    <path
       style="fill:#808080;fill-rule:evenodd;stroke:#808080;stroke-width:0.62116009px;stroke-linecap:butt;stroke-linejoin:miter;stroke-opacity:1"
       d="m 94.595774,939.49498 c 0,0 -3.401963,-2.88407 -5.533633,-2.95596 -1.354145,1.43988 -2.028913,4.8854 -2.031796,7.46391 -0.003,2.54144 0.524511,5.49807 1.986141,7.36101 2.098517,-0.2283 5.527961,-3.20805 5.527961,-3.20805 z"
       id="path3357-5-1-7-0-4-6-0-7"
       inkscape:connector-curvature="0"
       sodipodi:nodetypes="ccaccc" />
    <path
       style="fill:#808080;fill-rule:evenodd;stroke:#808080;stroke-width:0.61862284px;stroke-linecap:butt;stroke-linejoin:miter;stroke-opacity:1"
       d="m 97.780615,933.31176 c 0,0 -4.44591,-1.51085 -5.605957,-3.29027 0.529005,-1.89613 3.117297,-4.24715 5.313091,-5.57869 2.164151,-1.31246 4.955471,-2.38702 7.296401,-2.10174 0.88717,1.90592 0.11558,6.36422 0.11558,6.36422 z"
       id="path3357-6-4-9-2-7-2"
       inkscape:connector-curvature="0"
       sodipodi:nodetypes="ccaccc" />
    <path
       style="fill:#808080;fill-rule:evenodd;stroke:#808080;stroke-width:0.55938661px;stroke-linecap:butt;stroke-linejoin:miter;stroke-opacity:1"
       d="m 117.43243,926.06525 c 0,0 -1.02852,-4.90322 -0.15065,-6.61161 1.72632,-0.43409 4.73259,0.54542 6.76225,1.67347 2.0005,1.11178 4.09523,2.82269 4.92003,4.78909 -1.09947,1.5508 -4.94696,2.94219 -4.94696,2.94219 z"
       id="path3357-5-43-7-1-2-9-6"
       inkscape:connector-curvature="0"
       sodipodi:nodetypes="ccaccc" />
    <path
       style="fill:#808080;fill-rule:evenodd;stroke:#808080;stroke-width:0.57895249px;stroke-linecap:butt;stroke-linejoin:miter;stroke-opacity:1"
       d="m 103.46434,963.16949 c 0,0 1.1745,3.54161 0.26589,5.30973 -1.78669,0.44923 -4.89815,-0.56459 -6.998819,-1.73207 -2.070467,-1.15068 -4.238426,-2.92135 -5.092101,-4.95658 1.137905,-1.60507 5.991543,-3.35117 5.991543,-3.35117 z"
       id="path3357-5-1-6-1-5-6-3-5-2"
       inkscape:connector-curvature="0"
       sodipodi:nodetypes="ccaccc" />
    <path
       style="fill:#808080;fill-rule:evenodd;stroke:#808080;stroke-width:0.67223626px;stroke-linecap:butt;stroke-linejoin:miter;stroke-opacity:1"
       d="m 103.26512,962.46125 c 0,0 -3.8977,-10.05941 -4.10197,-15.35247 -0.1195,-3.0959 0.22316,-6.14861 1.69997,-9.1378 1.40214,-2.83807 4.35804,-5.25029 5.60894,-5.95099 3.11993,-1.74768 6.47203,-2.42245 8.84073,-2.48705 1.73636,-0.0474 8.68369,-0.66739 8.51431,-0.6559 0,0 -1.8528,-0.44072 -3.30921,-1.23679 -2.80045,-1.53071 -5.44011,-1.25706 -7.49909,-1.10316 -3.8635,0.28877 -10.96544,3.87226 -10.69618,4.05774 0.13851,0.0952 -4.71668,2.96152 -6.057541,5.43839 -1.221777,2.25694 -1.588781,5.44712 -1.58524,8.24619 0.0051,4.04956 0.686733,8.7529 2.323687,11.92447 1.962854,4.25196 6.261594,6.25737 6.261594,6.25737 z"
       id="path3599-5-5-1-2-4"
       inkscape:connector-curvature="0"
       sodipodi:nodetypes="cassscssssacc" />
  </g>
  <g
     inkscape:groupmode="layer"
     id="layer2"
     inkscape:label="Shading" />
</svg>
